<?xml version="1.0" standalone="no"?>
<!DOCTYPE svg PUBLIC "-//W3C//DTD SVG 20010904//EN"
 "http://www.w3.org/TR/2001/REC-SVG-20010904/DTD/svg10.dtd">
<svg version="1.0" xmlns="http://www.w3.org/2000/svg"
 width="1024.000000pt" height="1024.000000pt" viewBox="0 0 1024.000000 1024.000000"
 preserveAspectRatio="xMidYMid meet">

<g transform="translate(0.000000,1024.000000) scale(0.100000,-0.100000)"
fill="#000000" stroke="none">
<path d="M3255 10230 c-3 -5 -2 -10 3 -10 6 0 8 -9 5 -20 -3 -11 0 -27 7 -35
6 -8 9 -19 5 -25 -7 -11 12 -45 42 -75 13 -13 14 -20 5 -23 -20 -6 -14 -20 22
-56 26 -27 31 -37 23 -52 -8 -14 -4 -23 20 -43 36 -31 53 -61 53 -95 0 -16 8
-29 23 -37 39 -20 65 -50 60 -68 -3 -11 11 -36 36 -65 23 -26 51 -67 63 -89
11 -23 34 -57 49 -75 16 -18 29 -41 29 -51 0 -21 102 -221 135 -266 36 -49 98
-105 123 -111 12 -4 22 -13 22 -20 0 -23 -29 -28 -65 -11 -34 16 -169 110
-239 166 -55 44 -81 41 -99 -11 -17 -48 -31 -166 -29 -243 6 -190 10 -233 25
-267 10 -21 17 -49 17 -63 0 -69 144 -285 190 -285 9 0 32 -11 51 -25 32 -25
39 -26 134 -21 55 2 120 11 145 20 25 9 55 16 66 16 41 0 43 19 18 135 -13 61
-25 151 -26 200 l-3 90 30 3 c54 5 85 23 85 47 0 30 12 33 79 23 50 -8 57 -7
77 14 21 21 29 60 25 112 -1 14 -7 17 -26 14 -17 -4 -31 2 -46 18 l-22 23 70
68 c38 37 94 104 125 149 65 92 129 154 158 154 17 0 20 7 20 40 0 32 -5 43
-27 57 -38 25 -100 20 -164 -13 -106 -53 -182 -59 -215 -17 -8 10 -47 83 -86
162 -117 238 -173 320 -200 293 -23 -23 -43 -11 -138 78 -109 104 -216 185
-333 252 l-82 48 -117 0 c-67 0 -119 -4 -123 -10z m890 -1216 c12 -12 13 -20
5 -28 -13 -13 -44 4 -48 28 -4 21 22 21 43 0z m153 -36 c19 -19 14 -28 -12
-28 -21 0 -56 22 -56 36 0 10 57 3 68 -8z"/>
<path d="M8283 10226 c3 -8 -2 -16 -14 -19 -32 -9 -24 -66 21 -151 22 -42 35
-78 30 -81 -17 -10 -11 -58 14 -110 14 -32 21 -62 19 -82 -4 -25 2 -37 34 -70
21 -22 45 -42 53 -45 12 -5 13 -9 3 -24 -35 -53 -46 -83 -45 -124 0 -25 0 -69
1 -98 0 -30 6 -64 14 -76 8 -12 17 -42 20 -66 8 -70 32 -142 52 -156 10 -8 15
-20 11 -29 -9 -25 -72 13 -165 100 -77 72 -92 80 -136 75 -39 -4 -91 -69 -115
-145 -7 -22 -18 -47 -25 -55 -45 -54 -89 -199 -79 -262 4 -20 1 -52 -6 -70
-19 -53 -23 -338 -5 -390 8 -24 15 -53 15 -65 0 -62 24 -129 55 -158 18 -16
39 -48 46 -70 19 -58 35 -80 77 -108 40 -27 205 -64 238 -53 11 3 32 27 48 53
88 144 311 473 321 473 10 0 28 -24 53 -72 7 -16 19 -28 25 -28 7 0 53 18 102
40 64 29 98 39 117 34 23 -4 30 -1 39 20 7 14 20 26 29 26 10 0 23 6 29 14 6
8 28 17 49 20 20 4 52 9 71 13 19 3 55 18 80 33 25 14 79 39 119 54 l73 28 -6
67 c-4 36 -16 86 -26 110 -10 24 -19 47 -19 51 0 5 30 27 68 51 37 23 105 70
152 104 107 78 150 98 223 103 49 4 64 1 87 -17 16 -11 32 -21 35 -21 14 0 2
62 -19 93 -19 28 -23 44 -19 76 15 110 -110 153 -317 107 -40 -9 -112 -14
-185 -13 -162 3 -170 8 -178 114 -6 84 7 354 20 419 5 21 8 48 7 59 -6 59 -11
137 -7 115 9 -47 24 -47 18 0 -5 38 -4 42 6 25 18 -30 18 -30 33 -9 8 10 18
15 22 11 5 -4 2 -12 -6 -17 -13 -9 -13 -10 0 -10 13 0 13 -1 0 -10 -8 -5 -11
-12 -8 -16 4 -3 14 1 23 10 9 9 20 16 25 16 4 0 10 9 13 20 3 13 0 20 -9 20
-8 0 -14 -9 -14 -20 0 -11 -3 -20 -7 -20 -5 0 -8 18 -8 40 0 22 3 40 8 40 4 0
7 -6 7 -14 0 -16 44 -29 70 -21 11 3 17 12 14 19 -3 8 9 17 31 23 19 6 33 7
29 2 -3 -5 2 -9 10 -9 8 0 22 -8 31 -17 14 -13 21 -14 35 -5 14 8 19 8 23 -1
3 -9 -8 -13 -39 -13 -30 0 -43 4 -40 12 3 7 -5 15 -17 18 -33 9 -34 8 -32 -19
2 -14 0 -23 -4 -20 -9 5 -51 -23 -51 -34 0 -4 7 -8 15 -8 8 0 13 3 11 6 -2 3
2 12 10 19 11 10 14 10 14 0 0 -9 3 -10 8 -2 9 14 72 16 72 2 0 -5 -7 -8 -15
-4 -8 3 -15 1 -15 -5 0 -6 -5 -7 -10 -4 -6 4 -5 -5 2 -19 6 -14 15 -26 20 -26
12 0 10 14 -4 29 -11 11 -9 12 10 6 17 -5 22 -2 22 13 0 22 27 25 48 5 16 -16
32 -17 32 -2 0 5 5 7 11 3 20 -12 -18 -26 -40 -14 -14 7 -22 7 -27 -2 -4 -6
-3 -8 2 -5 6 3 16 1 24 -4 13 -8 13 -10 0 -19 -11 -8 -7 -9 15 -4 16 4 36 7
43 7 7 0 10 7 8 14 -3 8 -1 11 5 8 5 -4 15 -2 22 3 13 11 57 -2 57 -16 0 -5
10 -14 23 -20 l22 -11 -24 2 c-41 3 -34 -20 8 -27 47 -7 56 -18 41 -46 -6 -11
-7 -20 -3 -19 19 3 33 -2 33 -11 0 -6 -10 -8 -24 -4 -13 3 -27 1 -30 -4 -3 -6
2 -8 12 -5 11 2 26 -3 36 -12 9 -9 16 -12 16 -6 0 12 68 27 77 17 4 -3 -2 -13
-13 -21 -18 -14 -18 -14 7 -15 14 0 34 7 45 15 10 8 24 14 29 14 6 0 1 -6 -9
-14 -14 -11 -16 -15 -5 -15 12 0 12 -2 -1 -10 -8 -5 -12 -11 -9 -14 11 -11 62
-14 79 -4 20 13 50 4 50 -14 0 -9 -3 -9 -11 2 -7 10 -9 11 -7 2 2 -8 8 -14 13
-15 15 -3 18 72 3 91 -8 10 -9 13 -1 9 9 -6 12 40 13 183 l1 190 -311 0 c-246
0 -310 -3 -304 -12 6 -10 5 -10 -7 -1 -10 8 -191 12 -678 13 -575 1 -663 -1
-658 -14z m1251 -80 c-3 -9 -10 -13 -15 -10 -5 3 -3 11 4 19 15 16 19 13 11
-9z m-64 -17 c0 -5 -11 -4 -24 1 -16 6 -28 5 -37 -3 -11 -10 -11 -9 -1 4 12
17 62 15 62 -2z m104 -4 c-7 -16 -24 -21 -24 -6 0 8 7 13 27 20 1 1 0 -6 -3
-14z m-148 -20 c-1 -8 -5 -17 -8 -21 -5 -4 -4 16 1 34 3 9 9 -1 7 -13z m267
-2 c-7 -2 -19 -2 -25 0 -7 3 -2 5 12 5 14 0 19 -2 13 -5z m-170 -10 c-7 -2
-19 -2 -25 0 -7 3 -2 5 12 5 14 0 19 -2 13 -5z m260 -18 c4 -25 4 -25 -15 -9
-14 14 -16 19 -6 26 7 4 14 8 14 8 1 0 4 -11 7 -25z m167 -110 c0 -8 5 -15 12
-15 6 0 8 -3 5 -6 -8 -8 -37 14 -37 27 0 5 5 9 10 9 6 0 10 -7 10 -15z m60
-80 c0 -6 -10 -16 -22 -24 -18 -10 -20 -11 -10 0 20 22 15 41 -9 34 -19 -6
-20 -5 -8 7 10 12 18 13 31 4 10 -6 18 -15 18 -21z m178 10 c-3 -3 -9 2 -12
12 -6 14 -5 15 5 6 7 -7 10 -15 7 -18z m-78 5 c-8 -5 -22 -9 -30 -9 -10 0 -8
3 5 9 27 12 43 12 25 0z m-65 -20 c3 -5 -1 -10 -9 -10 -9 0 -16 5 -16 10 0 6
4 10 9 10 6 0 13 -4 16 -10z m120 -70 c-27 -12 -35 -12 -35 0 0 6 12 10 28 9
24 0 25 -1 7 -9z m-1368 -1162 c-3 -7 -5 -2 -5 12 0 14 2 19 5 13 2 -7 2 -19
0 -25z m86 25 c-7 -2 -21 -2 -30 0 -10 3 -4 5 12 5 17 0 24 -2 18 -5z"/>
<path d="M9814 10009 c-3 -6 1 -17 10 -25 9 -8 14 -11 11 -8 -3 4 0 13 5 19 8
9 6 14 -4 18 -9 4 -18 1 -22 -4z"/>
<path d="M9500 10001 c0 -5 -8 -12 -17 -14 -15 -4 -15 -5 -2 -6 9 0 22 6 29
14 9 10 9 15 1 15 -6 0 -11 -4 -11 -9z"/>
<path d="M9774 9976 c-10 -8 -16 -18 -11 -22 4 -4 7 -1 7 6 0 9 5 7 15 -6 13
-16 14 -16 9 -1 -3 9 -1 17 5 17 6 0 11 -6 11 -14 0 -7 10 -21 23 -29 19 -14
20 -18 7 -26 -17 -12 -10 -14 14 -5 8 3 13 11 10 18 -3 9 4 11 26 8 16 -2 30
-9 30 -15 0 -7 4 -7 12 1 20 20 2 26 -89 31 -13 1 -23 7 -23 15 0 25 -25 37
-46 22z"/>
<path d="M5344 9931 c4 -6 2 -11 -5 -11 -7 0 -9 -11 -5 -32 9 -43 16 -139 15
-185 -2 -47 24 -242 35 -273 17 -46 36 -101 41 -120 22 -81 46 -139 98 -235
42 -77 54 -89 120 -114 34 -13 35 -40 4 -77 l-23 -27 -190 -2 c-105 -1 -197
-5 -204 -10 -21 -13 8 -175 37 -208 11 -12 25 -36 31 -53 20 -61 119 -194 144
-194 5 0 41 -16 79 -35 61 -30 80 -35 142 -35 92 0 313 59 331 88 2 4 -17 51
-44 103 -65 124 -64 134 0 142 78 9 104 26 108 67 4 53 -10 82 -42 86 -64 7
-73 55 -25 133 30 48 33 50 88 57 32 4 92 2 141 -5 98 -14 141 -20 190 -25 19
-2 53 -8 75 -14 60 -16 150 -19 150 -5 0 6 4 15 9 20 5 4 7 3 3 -3 -6 -11 60
-17 67 -5 5 7 -32 14 -76 14 -16 0 -28 4 -28 9 0 5 -5 6 -12 2 -6 -4 -16 0
-22 8 -7 9 -36 31 -66 48 -30 18 -80 54 -110 80 -30 26 -80 64 -110 84 -57 39
-76 42 -185 24 -25 -4 -33 33 -10 52 35 29 5 80 -48 80 -26 0 -42 -11 -92 -65
-49 -53 -67 -65 -91 -65 -41 0 -52 15 -113 151 -63 141 -72 154 -122 179 -22
12 -50 38 -66 63 -14 23 -45 67 -68 97 -23 30 -60 88 -81 128 -22 41 -47 78
-58 84 -13 7 -16 7 -12 -1z m390 -1097 c19 -7 21 -30 4 -31 -7 0 -17 -2 -23
-3 -21 -5 -35 1 -35 14 0 8 8 17 18 19 9 3 18 5 19 6 1 0 8 -2 17 -5z"/>
<path d="M9895 9900 c-3 -5 -1 -10 4 -10 6 0 11 5 11 10 0 6 -2 10 -4 10 -3 0
-8 -4 -11 -10z"/>
<path d="M9934 9830 c0 -13 4 -16 10 -10 7 7 7 13 0 20 -6 6 -10 3 -10 -10z"/>
<path d="M10027 9796 c-4 -10 -1 -13 9 -9 7 3 14 9 14 14 0 14 -17 10 -23 -5z"/>
<path d="M10060 9800 c0 -5 5 -10 11 -10 5 0 7 5 4 10 -3 6 -8 10 -11 10 -2 0
-4 -4 -4 -10z"/>
<path d="M10103 9766 c-5 -7 -13 -15 -18 -17 -6 -2 -3 -12 8 -22 19 -19 19
-18 12 4 -7 21 -6 22 8 11 12 -10 21 -11 36 -3 24 13 34 14 27 2 -3 -4 6 -6
21 -3 l26 5 -27 14 c-23 12 -29 12 -42 -1 -15 -16 -48 -11 -38 5 3 5 9 7 14 4
5 -3 11 -2 14 3 2 4 -4 8 -15 9 -10 1 -22 -4 -26 -11z"/>
<path d="M10178 9693 c6 -2 18 -2 25 0 6 3 1 5 -13 5 -14 0 -19 -2 -12 -5z"/>
<path d="M2005 9598 c11 -101 21 -128 72 -196 38 -50 183 -116 206 -93 5 5 3
35 -6 68 -12 49 -12 59 0 66 14 8 28 -2 105 -71 68 -62 155 -95 178 -67 16 19
-2 65 -42 109 -16 17 -36 56 -44 86 -19 69 -24 79 -56 103 -34 26 -135 32
-218 14 -60 -13 -68 -13 -102 4 -20 10 -39 23 -43 29 -3 5 -18 10 -31 10 -25
0 -26 -1 -19 -62z"/>
<path d="M49 9505 c-20 -13 -39 -31 -43 -40 -3 -9 -6 -94 -6 -190 l0 -173 35
-58 c20 -33 58 -80 85 -105 77 -71 305 -181 345 -165 8 3 17 22 20 43 9 59 46
257 48 259 1 1 16 9 33 17 31 16 31 16 70 -24 73 -75 254 -168 425 -219 54
-16 105 -33 116 -38 33 -17 163 -53 172 -48 5 3 30 -1 57 -9 27 -8 69 -14 94
-13 l44 0 -39 35 c-124 109 -177 167 -172 190 4 20 -3 28 -35 44 -43 22 -248
217 -248 236 0 6 12 21 27 33 27 21 55 23 97 5 17 -7 18 -6 11 11 -4 10 -7 32
-6 47 1 19 -8 38 -29 59 l-31 31 -89 -6 c-56 -4 -91 -3 -95 3 -4 6 -10 8 -15
5 -4 -2 -13 8 -20 25 -21 51 -47 60 -167 60 -101 0 -128 -5 -253 -42 -33 -9
-71 -15 -112 -17 -14 -1 -18 -10 -18 -41 0 -22 -5 -40 -10 -40 -16 0 -121 68
-155 100 -26 25 -73 50 -93 50 -4 0 -24 -11 -43 -25z"/>
<path d="M1761 9273 c233 -250 488 -488 689 -643 124 -95 128 -100 45 -55
-143 77 -376 222 -580 360 -204 137 -245 162 -245 147 0 -4 59 -63 131 -131
136 -130 324 -285 497 -411 55 -41 99 -76 97 -78 -7 -7 -77 19 -175 63 -52 24
-122 56 -155 71 -115 52 -219 93 -225 88 -2 -3 15 -22 40 -42 25 -20 67 -57
95 -82 28 -25 90 -74 139 -110 48 -36 134 -100 189 -143 56 -43 121 -90 145
-104 52 -31 50 -39 -4 -17 -22 9 -89 20 -154 25 -63 5 -134 11 -157 15 -28 4
-43 2 -43 -4 0 -19 102 -112 268 -245 89 -71 162 -133 162 -138 0 -5 -45 -9
-99 -9 -55 0 -102 -4 -106 -9 -7 -13 235 -218 338 -286 31 -21 57 -42 57 -46
0 -5 -33 -9 -72 -9 -40 0 -79 -4 -87 -9 -22 -14 82 -117 232 -229 70 -53 126
-101 124 -106 -2 -6 -20 -14 -40 -17 -46 -7 -51 -12 -42 -38 9 -30 153 -144
236 -187 63 -33 90 -64 56 -64 -8 0 -23 -11 -36 -23 -17 -19 -20 -29 -12 -48
21 -57 118 -130 254 -192 31 -14 60 -34 64 -44 11 -32 37 -55 89 -78 94 -42
154 -112 154 -181 0 -54 30 -105 75 -131 28 -16 43 -33 56 -68 22 -58 41 -80
99 -113 55 -31 70 -48 70 -80 0 -31 31 -70 72 -91 21 -10 37 -28 43 -48 19
-58 77 -110 117 -105 23 3 28 -2 37 -35 6 -21 11 -45 11 -53 0 -9 19 -34 43
-56 71 -68 73 -69 103 -49 14 9 27 15 28 13 1 -2 10 -24 20 -49 11 -31 37 -66
76 -103 52 -50 62 -56 80 -46 22 12 40 6 40 -12 0 -22 51 -78 71 -78 11 0 38
-9 60 -21 23 -11 47 -18 55 -15 8 3 18 0 24 -7 5 -7 29 -36 52 -66 59 -74 71
-80 110 -58 28 16 32 16 48 2 34 -31 72 -21 167 45 54 37 71 73 89 180 12 76
13 90 3 90 -5 0 -9 -8 -9 -18 0 -11 -8 -26 -18 -35 -16 -15 -17 -13 -13 30 2
32 0 43 -8 39 -14 -9 -14 18 -1 64 7 25 7 36 -3 42 -6 4 -8 8 -4 8 4 0 -4 12
-18 27 -26 29 -34 50 -13 37 7 -5 9 -2 5 9 -3 8 0 18 8 20 8 4 12 -2 11 -19 0
-13 -5 -24 -9 -24 -4 0 1 -10 13 -22 11 -12 20 -25 20 -30 0 -4 4 -8 10 -8 5
0 9 5 7 11 -1 6 4 14 12 17 10 3 12 0 8 -14 -7 -18 -6 -18 8 0 10 13 11 22 5
26 -7 4 -5 11 4 20 9 7 13 16 10 21 -3 5 -1 9 5 9 6 0 8 7 5 15 -5 11 -1 14
12 9 11 -3 8 1 -6 10 -14 8 -20 15 -13 16 8 0 9 9 5 28 -7 25 -7 49 -2 62 2 5
7 81 13 175 3 46 14 68 29 59 7 -4 8 -2 4 4 -4 6 -13 9 -21 5 -23 -8 -17 5 8
18 12 6 19 8 15 4 -4 -4 4 -19 18 -33 13 -15 24 -34 24 -42 0 -9 5 -21 12 -28
9 -9 7 -13 -6 -18 -13 -5 -14 -9 -5 -20 12 -15 33 -9 24 7 -4 5 -2 9 3 9 5 0
12 -9 15 -20 3 -13 1 -18 -6 -14 -8 5 -8 3 0 -6 10 -11 15 -11 28 0 14 11 16
11 13 -1 -2 -8 -12 -18 -23 -22 -19 -8 -19 -9 -3 -21 10 -7 14 -17 10 -21 -4
-5 -2 -5 5 -1 7 4 10 14 7 24 -4 13 -2 12 8 -3 14 -22 38 -31 38 -15 0 6 5 10
10 10 12 0 14 -33 3 -44 -13 -13 -9 -74 4 -69 6 3 9 12 6 21 -4 9 -2 14 2 9 5
-4 18 2 31 13 20 19 21 20 21 3 0 -44 4 -63 12 -63 5 0 11 10 13 22 3 21 4 21
21 4 9 -10 15 -22 11 -27 -3 -5 6 -13 19 -18 14 -6 28 -15 32 -21 3 -5 11 -8
16 -5 5 3 6 -1 3 -10 -4 -11 -2 -14 9 -9 8 3 18 0 22 -6 11 -18 9 -152 -4
-200 0 -3 -12 -18 -26 -34 -14 -16 -23 -31 -21 -34 7 -6 46 8 44 16 -1 4 7 22
19 40 22 35 39 24 20 -13 -19 -37 -70 -94 -78 -89 -5 3 -9 1 -9 -4 0 -5 -16
-27 -35 -48 -19 -21 -35 -44 -35 -51 0 -7 -6 -10 -14 -7 -8 3 -17 0 -21 -5 -3
-6 -10 -9 -15 -6 -5 3 -12 0 -16 -6 -4 -8 -3 -9 4 -5 7 4 12 4 12 -1 0 -4 -16
-17 -36 -28 -20 -11 -45 -36 -57 -55 l-21 -35 25 20 24 20 -19 -23 c-11 -12
-26 -20 -33 -18 -7 3 -13 2 -13 -2 0 -5 -21 -21 -47 -38 -25 -16 -52 -35 -60
-42 -9 -10 -13 -10 -13 -1 0 8 -5 8 -17 -2 -17 -13 -17 -13 0 13 23 37 21 57
-3 30 -25 -27 -32 -28 -23 -4 6 15 5 15 -10 3 -10 -8 -20 -12 -23 -9 -2 3 7
13 21 22 14 9 25 13 25 9 0 -4 11 8 25 27 29 40 30 41 10 34 -8 -4 -15 -10
-15 -14 0 -4 -19 -20 -42 -36 -24 -16 -45 -32 -46 -37 -2 -4 -8 -5 -12 -2 -5
3 -16 -5 -24 -17 -9 -12 -16 -17 -16 -10 0 7 -22 -4 -50 -23 -27 -19 -50 -32
-50 -29 0 4 7 12 15 18 21 15 43 82 37 112 -6 31 -11 30 -52 -7 l-35 -30 39
28 c38 27 41 19 7 -21 -9 -11 -10 -16 -3 -12 6 4 12 5 12 2 0 -3 -10 -10 -21
-17 -13 -7 -19 -7 -15 -1 4 7 -3 8 -21 3 -16 -4 -34 -6 -41 -4 -7 3 -15 -7
-18 -26 -7 -31 -30 -46 -56 -36 -17 7 -53 -56 -64 -113 -4 -18 -10 -34 -14
-37 -16 -10 11 90 35 132 14 23 22 43 17 43 -18 0 -77 -24 -84 -33 -3 -6 -23
-12 -44 -13 -21 -2 -42 -8 -48 -14 -8 -8 -4 -9 15 -2 14 6 31 7 39 2 8 -5 -8
-11 -41 -15 -43 -6 -50 -10 -34 -17 14 -6 10 -7 -15 -3 -19 4 -78 13 -130 20
-52 8 -183 31 -290 51 -181 33 -206 41 -343 101 -148 65 -228 89 -212 63 5 -9
2 -10 -14 -5 -15 4 -21 3 -19 -7 2 -9 -7 -12 -32 -11 -30 2 -32 1 -12 -7 34
-14 26 -23 -15 -16 l-38 5 30 -14 30 -14 -35 -1 c-26 0 -31 -3 -20 -10 12 -8
12 -10 -5 -10 l-20 -1 20 -16 c20 -15 20 -15 -2 -10 -27 6 -32 -9 -5 -16 9 -3
1 -6 -18 -7 -29 -1 -32 -3 -15 -10 17 -7 16 -9 -10 -10 l-30 -1 28 -15 c30
-16 34 -22 15 -21 -37 1 -58 -4 -53 -13 3 -5 0 -10 -8 -10 -10 0 -13 -8 -9
-25 3 -19 0 -25 -14 -26 -14 -1 -13 -3 6 -9 l25 -8 -25 -1 c-24 -2 -24 -2 -6
-16 19 -15 19 -15 -5 -15 -13 0 -19 -4 -13 -8 16 -11 25 -42 11 -42 -21 0 27
-26 73 -39 96 -28 96 -29 -7 -30 -56 -1 -108 -4 -117 -7 -20 -8 -21 -24 -1
-24 13 0 12 -4 -4 -22 -11 -11 -18 -24 -16 -28 2 -4 -2 -16 -10 -26 -8 -10
-15 -30 -15 -42 0 -13 -9 -37 -20 -53 -18 -24 -19 -32 -9 -51 9 -16 9 -23 0
-26 -6 -2 -11 -14 -11 -28 0 -18 4 -22 18 -17 14 5 15 3 5 -8 -18 -18 -16 -29
5 -29 13 0 14 -2 3 -9 -20 -13 -5 -30 21 -23 14 3 19 2 14 -7 -4 -6 -12 -9
-17 -6 -16 11 -9 -15 10 -36 11 -12 24 -18 29 -15 6 3 12 -1 16 -9 4 -11 15
-13 47 -9 61 9 41 -12 -26 -27 -30 -7 -62 -20 -71 -30 -15 -16 -14 -17 8 -12
20 6 21 4 10 -9 -10 -12 -9 -22 3 -52 8 -20 20 -36 25 -36 5 0 7 -7 4 -15 -4
-8 -1 -15 5 -15 6 0 17 -16 25 -35 8 -19 22 -35 30 -35 9 0 16 -7 16 -16 0 -8
-4 -12 -10 -9 -5 3 -10 -1 -10 -9 0 -9 6 -16 14 -16 10 0 12 -7 8 -22 -3 -14
-2 -19 6 -14 8 5 12 -1 12 -14 0 -12 5 -18 10 -15 6 3 10 1 10 -5 0 -20 53
-81 66 -76 8 3 11 0 8 -8 -7 -18 32 -59 48 -50 7 4 10 4 6 -1 -10 -10 19 -38
32 -30 5 3 10 1 10 -4 0 -6 6 -11 13 -11 8 0 24 -11 37 -25 12 -13 27 -22 31
-19 5 3 9 0 9 -6 0 -7 7 -9 16 -6 11 4 15 2 11 -8 -6 -15 41 -20 59 -5 7 6 15
0 23 -15 12 -22 92 -79 115 -82 6 -1 13 -3 16 -4 16 -8 167 -7 176 1 12 10 71
1 80 -12 13 -22 146 1 214 36 18 9 45 18 61 20 16 2 71 23 122 47 76 35 103
42 157 44 134 2 213 28 350 112 36 22 67 37 70 32 3 -4 31 1 64 11 32 10 63
15 70 11 6 -4 38 -8 71 -9 130 -4 185 -16 245 -52 65 -39 81 -44 99 -27 14 12
30 11 121 -10 176 -40 292 -57 301 -43 4 7 5 18 2 26 -11 28 7 63 31 63 34 0
41 13 65 130 33 162 37 220 16 259 l-17 33 -27 -26 c-35 -34 -99 -141 -128
-215 -12 -31 -22 -50 -22 -43 -1 24 62 177 86 209 13 18 19 33 13 33 -15 0
-45 -52 -86 -151 -19 -47 -41 -86 -47 -86 -7 -1 -36 -3 -65 -6 -62 -6 -117 9
-147 39 -23 23 -23 48 -2 97 10 23 16 27 36 22 21 -5 23 -4 12 9 -7 8 -19 12
-27 9 -12 -4 -13 -1 -5 18 5 13 12 36 15 51 4 17 15 30 33 36 27 9 28 9 6 16
-13 4 -23 11 -23 16 0 5 7 6 17 3 12 -5 14 -3 8 7 -6 10 1 12 38 7 41 -6 45
-5 40 11 -12 34 -59 75 -122 105 -79 38 -75 42 86 86 154 42 192 56 287 103
106 53 157 88 241 168 88 84 185 157 278 211 39 23 86 54 102 69 17 15 50 40
75 55 78 47 154 99 194 132 59 49 178 95 261 101 94 6 139 -8 218 -68 36 -27
71 -50 77 -50 16 0 12 68 -7 103 -9 18 -19 48 -23 67 -4 25 -11 34 -22 32 -9
-1 -18 6 -21 17 -4 15 -11 19 -28 15 -13 -3 -32 -6 -42 -6 -9 1 -15 -3 -12 -9
9 -14 -18 -10 -38 6 -24 17 -15 47 19 65 21 12 29 12 46 1 11 -7 23 -10 26 -6
4 3 8 38 10 76 7 122 -39 206 -147 270 -124 73 -307 86 -571 39 -63 -11 -145
-20 -182 -20 -66 0 -67 1 -59 23 4 12 11 36 15 52 5 23 4 26 -4 15 -8 -11 -9
-8 -4 15 4 17 11 39 15 50 l8 20 1 -20 c1 -17 3 -17 11 5 6 14 20 59 31 100
11 41 27 82 35 91 8 9 23 41 34 70 11 29 33 71 48 93 64 93 93 143 98 169 4
18 23 41 52 63 95 72 151 198 151 338 0 88 -12 116 -49 116 -49 0 -52 15 -25
135 14 61 31 151 40 200 20 126 30 470 15 565 -7 41 -12 82 -13 90 0 13 -29
151 -59 285 -5 22 -12 51 -15 65 -23 106 -56 207 -71 217 -52 39 -68 -10 -77
-245 -3 -52 -7 -96 -10 -99 -2 -3 -18 4 -34 16 -32 23 -74 100 -123 228 -17
45 -36 86 -43 91 -27 21 -46 21 -58 -1 -14 -26 -20 -200 -9 -269 10 -60 2 -74
-30 -58 -30 15 -49 37 -104 122 -46 70 -72 92 -94 78 -18 -10 -26 -168 -13
-238 5 -29 6 -55 2 -57 -15 -9 -54 14 -105 60 -27 25 -57 44 -65 43 -19 -4
-28 -54 -31 -165 -2 -115 -10 -124 -72 -82 -26 17 -54 29 -64 27 -20 -4 -31
-55 -36 -153 l-2 -60 -40 -5 c-50 -6 -68 -39 -70 -124 -2 -61 -12 -76 -52 -76
-32 0 -64 -59 -70 -131 -3 -33 -11 -62 -17 -64 -6 -2 -23 -6 -38 -9 -34 -8
-78 -87 -78 -140 0 -43 -9 -66 -25 -66 -47 0 -102 -108 -89 -175 6 -32 3 -36
-30 -56 -37 -22 -71 -74 -92 -139 -9 -28 -8 -41 4 -65 13 -27 13 -30 -3 -40
-50 -29 -60 -42 -46 -59 7 -9 11 -16 8 -16 -3 0 -38 44 -78 98 -83 109 -450
494 -548 572 -36 29 -97 74 -136 100 -95 64 -336 202 -342 196 -3 -2 10 -23
28 -45 79 -100 -9 -54 -317 162 -603 424 -1461 1074 -1733 1312 -204 178 -542
455 -557 455 -5 0 8 -17 27 -37z m904 -1202 c3 -5 2 -12 -3 -15 -5 -3 -9 1 -9
9 0 17 3 19 12 6z m98 -61 c20 -11 37 -22 37 -25 0 -8 -59 17 -71 31 -6 8 -17
14 -24 14 -7 0 -16 7 -19 16 -6 15 -5 15 16 0 13 -9 40 -25 61 -36z m82 -50
c3 -6 -1 -7 -9 -4 -18 7 -21 14 -7 14 6 0 13 -4 16 -10z m-35 -193 c195 -125
230 -149 230 -153 0 -2 -86 40 -190 94 -112 57 -188 102 -186 109 3 6 -2 14
-11 17 -9 4 -13 9 -10 12 3 4 -4 15 -16 26 l-22 19 25 -12 c14 -6 95 -57 180
-112z m170 -185 c-7 -3 -19 3 -28 13 -16 15 -15 16 12 4 15 -7 23 -15 16 -17z
m-114 -82 c38 -23 104 -63 146 -89 42 -25 75 -47 73 -49 -2 -2 -35 10 -73 27
-39 17 -73 31 -75 31 -3 0 -40 16 -81 35 -42 19 -81 35 -87 35 -5 0 -7 5 -4
10 3 6 1 10 -4 10 -6 0 -11 8 -11 19 0 28 37 19 116 -29z m214 -161 c41 -11
120 -43 175 -72 55 -28 115 -58 133 -66 17 -8 32 -18 32 -21 0 -3 -12 -13 -26
-23 -25 -19 -25 -19 -31 2 -3 11 -9 18 -14 15 -5 -3 -7 -10 -4 -15 10 -15 -22
-10 -35 6 -7 8 -21 15 -32 15 -10 0 -17 4 -14 9 4 5 -2 8 -11 7 -31 -5 -272
101 -307 135 -6 5 -11 15 -12 23 -2 18 36 13 146 -15z m3480 -3 c0 -3 -4 -8
-10 -11 -5 -3 -10 -1 -10 4 0 6 5 11 10 11 6 0 10 -2 10 -4z m-171 -86 c25
-22 48 -40 53 -40 4 0 8 -7 8 -15 0 -8 5 -15 11 -15 5 0 7 -4 4 -10 -3 -5 -15
-10 -26 -10 -11 0 -17 5 -14 10 3 6 2 10 -2 10 -5 0 -18 7 -28 15 -81 62 -94
73 -88 79 3 3 1 6 -7 6 -10 0 -10 3 0 15 15 18 28 11 89 -45z m-244 -80 c11 9
31 2 92 -35 91 -55 143 -93 143 -104 0 -4 -10 -12 -22 -18 -18 -8 -30 -6 -53
9 -16 10 -38 21 -47 24 -10 4 -15 11 -11 17 4 6 1 7 -6 2 -11 -6 -39 9 -86 47
-48 39 -57 48 -47 48 6 0 9 8 6 18 -5 15 -4 15 6 -1 9 -14 15 -16 25 -7z
m-2696 -31 c-11 -22 -21 -26 -13 -5 3 8 0 17 -5 21 -6 3 -9 11 -5 16 4 6 11 6
20 -2 10 -8 11 -16 3 -30z m-25 0 c-6 -11 -24 -2 -24 11 0 5 7 7 15 4 8 -4 12
-10 9 -15z m112 -20 c3 -6 1 -16 -5 -22 -9 -9 -10 -7 -5 7 5 13 4 17 -4 12 -6
-3 -13 -2 -17 4 -3 5 1 10 9 10 8 0 18 -5 22 -11z m44 -19 c13 -8 13 -10 -2
-10 -9 0 -20 5 -23 10 -8 13 5 13 25 0z m-271 -39 c24 -13 149 -65 277 -116
247 -100 308 -128 320 -146 5 -8 3 -9 -6 -4 -7 4 -16 2 -22 -6 -8 -11 -9 -10
-4 4 4 14 2 16 -12 8 -19 -10 -74 -12 -68 -2 2 3 -21 7 -52 9 -34 2 -64 10
-74 19 -10 9 -18 14 -18 11 0 -3 -19 -2 -42 3 -155 26 -484 156 -551 217 -18
16 -18 17 5 24 12 4 64 6 113 4 71 -2 100 -7 134 -25z m2764 -54 c20 -9 41
-17 45 -18 4 0 27 -13 52 -27 25 -14 57 -32 72 -39 15 -8 30 -18 33 -23 8 -13
-53 -42 -68 -33 -7 4 -20 9 -30 10 -33 5 -203 103 -219 127 -3 5 -1 14 5 21
13 13 50 7 110 -18z m-78 -172 c31 -8 72 -23 93 -33 20 -11 51 -25 67 -32 26
-12 27 -14 10 -18 -11 -2 -28 -11 -37 -19 -19 -17 -91 -11 -115 9 -7 6 -13 7
-13 4 0 -4 -12 0 -27 8 -16 8 -56 27 -90 41 -34 15 -64 34 -67 42 -3 8 -1 11
4 8 6 -3 10 -1 10 6 0 14 80 7 165 -16z m-2685 -15 c13 -8 13 -10 -2 -10 -9 0
-20 5 -23 10 -8 13 5 13 25 0z m90 -20 c13 -9 13 -10 0 -9 -8 0 -24 4 -35 9
l-20 9 20 0 c11 0 27 -4 35 -9z m228 -64 c135 -43 337 -96 363 -96 26 0 20
-18 -13 -43 -20 -15 -42 -20 -85 -19 -126 1 -308 26 -332 46 -8 6 -17 10 -20
9 -19 -9 -219 73 -246 101 -28 28 -4 36 111 36 102 0 126 -4 222 -34z m2322
-71 c50 -13 62 -35 35 -65 -22 -24 -99 -21 -200 8 -61 18 -78 39 -54 68 9 11
29 13 93 7 44 -3 101 -11 126 -18z m130 -94 c0 -3 9 -12 20 -19 15 -9 26 -10
41 -1 12 6 66 12 122 14 82 2 98 0 84 -10 -9 -6 -48 -13 -87 -14 -38 -1 -85
-8 -104 -16 -18 -8 -37 -11 -41 -7 -5 4 -5 2 -2 -4 4 -6 -5 -16 -18 -22 -17
-8 -25 -8 -25 -1 0 6 -4 7 -10 4 -5 -3 -10 -1 -10 4 0 6 6 11 13 11 9 0 9 2 0
8 -17 11 -14 72 3 65 8 -3 14 -8 14 -12z m671 -32 c19 -7 39 -16 44 -22 7 -7
3 -7 -10 -2 -11 4 -70 13 -132 19 -62 7 -116 16 -120 20 -11 12 177 -2 218
-15z m-304 5 c-3 -3 -12 -4 -19 -1 -8 3 -5 6 6 6 11 1 17 -2 13 -5z m-71 -23
c-3 -4 -23 -11 -45 -14 -22 -3 -72 -21 -113 -40 -82 -39 -142 -60 -175 -62
-13 0 -23 0 -23 0 0 1 22 16 49 33 73 48 131 72 176 72 22 0 47 5 55 10 19 12
83 13 76 1z m-2736 -21 c152 -23 170 -27 170 -41 0 -14 -267 -1 -300 14 -37
17 -50 28 -44 38 7 12 21 12 174 -11z m2787 -1 c-9 -5 -21 -8 -26 -5 -4 3 -17
-1 -27 -9 -10 -8 -30 -15 -44 -15 -24 0 -24 0 -4 14 20 15 51 23 94 24 22 1
23 0 7 -9z m78 1 c3 -5 -3 -10 -14 -10 -12 0 -21 5 -21 10 0 6 6 10 14 10 8 0
18 -4 21 -10z m72 4 c-3 -3 -12 -4 -19 -1 -8 3 -5 6 6 6 11 1 17 -2 13 -5z
m-673 -10 l49 -6 -84 -35 c-97 -41 -203 -53 -214 -26 -11 30 21 62 67 65 24 2
63 4 88 6 25 2 67 0 94 -4z m620 -19 c-7 -16 -24 -21 -24 -6 0 8 7 13 27 20 1
1 0 -6 -3 -14z m-464 -9 c0 -7 -9 -16 -20 -19 -23 -6 -25 -2 -7 18 16 18 27
19 27 1z m215 -25 c-8 -16 -29 -39 -45 -51 -29 -21 -36 -42 -8 -24 7 5 24 9
37 9 23 1 23 1 -5 -22 -32 -25 -49 -30 -39 -10 4 6 0 5 -7 -3 -8 -8 -20 -21
-28 -29 -13 -12 -13 -13 2 -8 12 4 15 2 11 -9 -3 -7 -8 -14 -12 -15 -3 0 -16
-2 -28 -3 -13 -2 -31 -10 -41 -20 -11 -9 -30 -19 -43 -21 -13 -3 -31 -13 -39
-24 -8 -10 -24 -23 -35 -29 -14 -8 -16 -12 -5 -12 13 0 13 -1 0 -10 -25 -16
-29 -12 -20 19 7 25 5 30 -12 34 -11 3 -17 10 -13 16 3 6 -1 11 -9 11 -9 0
-16 7 -16 15 0 8 5 15 10 15 6 0 10 7 8 16 -2 10 15 26 50 44 44 24 49 29 30
33 -15 3 -11 5 13 6 20 0 71 10 115 21 63 16 84 26 103 50 30 38 46 39 26 1z
m-801 -53 l27 -43 -30 35 c-27 32 -38 50 -27 50 2 0 15 -19 30 -42z m867 11
c-13 -11 -26 -17 -29 -15 -3 3 6 14 19 25 13 11 26 17 29 14 3 -2 -6 -13 -19
-24z m-385 -35 c11 -9 9 -13 -11 -22 -23 -11 -25 -10 -25 17 0 30 12 50 18 29
3 -7 10 -18 18 -24z m-354 -36 c-36 -35 -56 -48 -63 -41 -7 7 5 23 38 52 69
59 88 51 25 -11z m732 18 c-6 -15 -34 -30 -41 -22 -5 5 26 36 37 36 5 0 7 -6
4 -14z m96 4 c0 -5 -8 -10 -17 -10 -15 0 -16 2 -3 10 19 12 20 12 20 0z m-159
-43 c-6 -8 -8 -16 -5 -20 8 -7 -103 -78 -140 -88 -21 -6 -32 -5 -38 4 -4 6 -8
7 -8 2 0 -6 -9 -16 -20 -23 -26 -16 -25 -8 2 18 12 11 29 18 37 15 9 -2 23 0
31 6 13 9 12 10 -3 5 -11 -3 -16 -2 -12 4 3 6 10 10 15 10 5 0 39 18 77 40 75
44 80 46 64 27z m99 -17 c0 -5 -2 -10 -4 -10 -3 0 -8 5 -11 10 -3 6 -1 10 4
10 6 0 11 -4 11 -10z m-26 -41 c-27 -11 -34 -10 -34 0 0 11 31 20 44 13 5 -3
1 -9 -10 -13z m-551 -9 c-3 -11 -2 -31 1 -45 5 -20 13 -25 36 -25 52 0 31 -23
-62 -69 -32 -16 -54 -32 -50 -37 4 -5 1 -4 -6 2 -11 9 -8 22 12 67 15 31 26
69 26 86 0 16 6 32 13 34 25 11 35 7 30 -13z m503 -28 c1 -7 0 -8 -3 -2 -3 6
-15 4 -33 -5 -40 -21 -47 -19 -19 5 26 21 51 22 55 2z m-1985 -11 c-7 -5 -11
-13 -7 -19 9 -15 -3 -20 -62 -27 -34 -4 -52 -2 -52 5 0 6 -4 8 -10 5 -5 -3
-10 -4 -10 -1 0 3 18 14 40 24 41 19 127 30 101 13z m1876 -6 c0 -8 -3 -15 -6
-16 -29 -4 -51 -5 -51 -3 0 3 37 24 56 34 0 0 1 -7 1 -15z m63 -19 c-14 -8
-29 -11 -35 -8 -5 3 1 9 15 13 40 11 47 9 20 -5z m163 -3 c-7 -2 -19 -2 -25 0
-7 3 -2 5 12 5 14 0 19 -2 13 -5z m-281 -45 c-9 -9 -12 -7 -12 12 0 19 3 21
12 12 9 -9 9 -15 0 -24z m183 22 c-3 -5 2 -10 11 -10 10 0 15 -3 11 -6 -10
-10 -39 5 -32 16 3 5 8 10 11 10 3 0 2 -4 -1 -10z m-371 -12 c-5 -8 -2 -9 9
-5 10 3 17 2 17 -2 0 -5 -8 -12 -17 -15 -20 -8 -37 15 -20 26 17 11 19 10 11
-4z m56 2 c0 -5 -5 -10 -11 -10 -5 0 -7 5 -4 10 3 6 8 10 11 10 2 0 4 -4 4
-10z m76 -5 c-2 -7 1 -18 7 -24 7 -7 8 -11 0 -11 -6 0 -23 -10 -39 -22 -15
-13 -33 -23 -39 -24 -5 0 -16 -2 -22 -2 -7 -1 -13 -9 -13 -17 0 -16 -15 -20
-24 -7 -3 5 4 15 15 22 10 8 19 20 19 28 0 14 23 42 35 42 4 0 12 6 20 13 16
17 47 18 41 2z m-401 -15 c10 -11 16 -20 13 -20 -3 0 -13 9 -23 20 -10 11 -16
20 -13 20 3 0 13 -9 23 -20z m228 -2 c-4 -7 -6 -21 -5 -30 2 -11 -13 -26 -43
-43 -25 -15 -49 -34 -55 -43 -8 -15 -12 -14 -35 10 -14 15 -25 31 -25 35 0 6
131 70 168 82 2 1 0 -5 -5 -11z m-3 -93 c0 -8 -5 -15 -10 -15 -6 0 -21 -9 -33
-21 -20 -19 -21 -20 -2 -13 11 4 25 11 32 16 7 6 18 8 24 6 7 -2 -7 -14 -32
-27 -31 -16 -36 -21 -17 -17 22 5 26 3 22 -9 -8 -20 -50 -19 -58 1 -7 18 10
54 25 54 6 0 7 5 4 10 -3 6 3 10 14 10 12 0 21 5 21 10 0 6 2 10 5 10 3 0 5
-7 5 -15z m-589 -64 c-8 -5 -11 -16 -8 -25 4 -9 2 -16 -3 -16 -11 0 -14 33 -3
43 3 4 11 7 17 7 6 0 5 -4 -3 -9z m617 -47 c0 -24 -3 -32 -8 -24 -7 11 -11 11
-24 1 -23 -19 -19 0 6 32 12 15 23 27 24 27 1 0 2 -16 2 -36z m-71 -8 c0 -8
-6 -12 -15 -9 -11 5 -11 7 0 14 7 5 13 9 14 9 0 0 1 -6 1 -14z m-557 -17 c0
-14 2 -23 10 -45 6 -15 3 -25 -11 -37 -22 -19 -29 -21 -29 -9 0 5 10 14 23 20
21 11 21 11 -6 7 -24 -3 -27 -2 -17 10 7 8 17 12 22 9 6 -4 5 3 -1 15 -7 11
-9 21 -5 21 3 0 1 7 -6 15 -11 13 -10 14 4 9 9 -3 16 -10 16 -15z m-160 -69
c0 -5 -2 -10 -4 -10 -3 0 -8 5 -11 10 -3 6 -1 10 4 10 6 0 11 -4 11 -10z m794
-26 c21 -21 40 -33 47 -28 8 4 9 3 5 -4 -9 -15 -32 -3 -70 37 -41 43 -26 39
18 -5z m-794 -68 c0 -3 -4 -8 -10 -11 -5 -3 -10 -1 -10 4 0 6 5 11 10 11 6 0
10 -2 10 -4z m44 -96 c-3 -115 -4 -117 -15 -97 -5 9 -7 22 -4 27 3 6 2 10 -3
10 -5 0 -9 7 -9 15 0 8 4 12 9 9 14 -9 9 6 -7 23 -8 8 -12 19 -9 25 4 6 10 5
16 -3 7 -10 8 -8 3 6 -17 48 -11 89 9 58 6 -10 11 -43 10 -73z m-42 55 c0 -5
-5 -11 -11 -13 -6 -2 -11 4 -11 13 0 9 5 15 11 13 6 -2 11 -8 11 -13z m2011
-22 c-7 -2 -19 -2 -25 0 -7 3 -2 5 12 5 14 0 19 -2 13 -5z m-1943 -34 c0 -5
-4 -9 -8 -9 -5 0 -9 7 -9 15 0 8 4 12 9 9 4 -3 8 -9 8 -15z m1807 15 c-3 -3
-12 -4 -19 -1 -8 3 -5 6 6 6 11 1 17 -2 13 -5z m-1797 -65 c0 -6 9 -8 20 -4
11 4 20 2 20 -4 0 -6 -3 -10 -7 -10 -19 3 -25 -2 -15 -14 8 -9 8 -17 0 -27 -8
-12 -9 -12 -4 2 3 10 1 20 -4 23 -17 10 -32 45 -20 45 5 0 10 -5 10 -11z m577
-154 c0 -17 -13 -20 -21 -6 -4 5 0 12 6 14 7 3 13 6 14 6 0 1 1 -6 1 -14z
m-257 -409 c0 -2 -7 -9 -15 -16 -13 -11 -14 -10 -9 4 5 14 24 23 24 12z m-302
-139 c15 6 15 5 2 -11 -8 -11 -16 -14 -18 -7 -2 6 -8 9 -13 6 -5 -4 -6 2 -2
11 4 10 8 13 10 7 3 -7 12 -9 21 -6z m-178 -18 c0 -18 -3 -19 -15 -9 -12 10
-18 6 -35 -22 -11 -18 -20 -37 -20 -42 0 -5 -3 -7 -6 -4 -5 6 20 62 38 86 16
19 38 14 38 -9z m-80 -98 c0 -5 -6 -14 -14 -20 -12 -10 -13 -8 -9 8 5 21 23
30 23 12z m-80 -31 c-6 -11 -12 -20 -14 -20 -2 0 -2 9 1 20 3 11 9 20 15 20 5
0 4 -9 -2 -20z m611 -467 c13 -16 12 -17 -3 -4 -10 7 -18 15 -18 17 0 8 8 3
21 -13z m32 2 c-3 -9 -8 -14 -10 -11 -3 3 -2 9 2 15 9 16 15 13 8 -4z m-82 -9
c-8 -10 -9 -16 -1 -21 5 -3 10 -2 10 4 0 10 26 9 35 -2 3 -4 2 -5 -2 -2 -3 3
-17 -2 -31 -11 -13 -9 -22 -11 -18 -6 3 6 2 14 -4 17 -10 6 4 35 17 35 3 0 0
-6 -6 -14z m-250 -56 c215 -55 260 -68 242 -69 -7 -1 -13 -8 -13 -17 0 -9 -5
-12 -12 -8 -7 5 -8 3 -4 -5 5 -7 14 -10 22 -7 12 5 12 2 3 -15 -9 -17 -7 -28
7 -54 16 -29 16 -36 3 -51 -12 -16 -12 -17 1 -10 8 4 4 -1 -10 -12 -14 -12
-21 -24 -17 -29 5 -4 12 -1 17 7 5 8 12 11 16 7 4 -4 1 -15 -8 -24 -15 -15
-18 -15 -33 1 -19 19 -31 20 -41 4 -4 -7 -3 -8 4 -4 19 12 14 2 -10 -18 -16
-14 -20 -15 -15 -3 6 17 -18 31 -35 20 -7 -3 -8 -1 -4 5 5 8 -1 12 -14 12 -12
0 -19 -3 -17 -7 3 -5 -14 -9 -36 -11 -23 -1 -43 -7 -45 -12 -2 -6 -10 -6 -21
-1 -10 6 -40 11 -68 13 -28 2 -49 6 -46 10 2 5 -2 8 -9 8 -8 0 -29 11 -48 25
-18 13 -36 22 -40 20 -4 -2 -21 0 -38 4 -22 7 -32 6 -36 -2 -2 -7 -5 -3 -7 8
-1 12 -5 7 -10 -15 -7 -30 -7 -27 -5 20 4 80 91 260 126 260 4 0 94 -22 201
-50z m225 28 c4 -7 4 -10 -1 -6 -4 4 -15 2 -24 -5 -14 -11 -14 -10 -2 6 16 20
18 21 27 5z m411 -147 c24 -11 44 -15 47 -10 2 5 3 4 2 -3 -3 -16 -51 -17 -91
-2 -16 6 -36 9 -42 7 -7 -3 -13 -1 -13 5 0 28 39 29 97 3z m-133 -20 c4 -5 -3
-7 -14 -4 -23 6 -26 13 -6 13 8 0 17 -4 20 -9z m51 -21 c-3 -5 -1 -11 5 -15 5
-3 10 1 10 9 0 20 85 20 101 0 10 -12 3 -13 -42 -9 -40 3 -48 2 -31 -5 12 -5
28 -7 35 -4 8 3 20 -3 28 -12 9 -12 10 -15 2 -10 -9 5 -13 1 -13 -13 0 -11 -4
-22 -10 -26 -5 -3 -7 -12 -4 -19 7 -18 -27 -30 -38 -14 -5 9 -8 5 -8 -11 0
-20 4 -22 25 -17 21 5 25 3 25 -18 0 -31 -27 -55 -36 -32 -3 9 -11 13 -18 9
-6 -4 -14 -8 -18 -8 -3 0 -10 -4 -15 -9 -4 -5 -4 -7 2 -4 6 3 15 0 22 -7 9
-10 6 -15 -14 -24 -22 -10 -25 -10 -15 2 7 8 9 17 5 21 -4 3 -8 16 -10 28 -2
12 -7 25 -11 28 -15 11 -37 44 -24 36 6 -4 12 -3 12 3 0 5 -6 12 -12 15 -7 3
-3 3 9 1 24 -7 41 11 25 27 -8 8 -16 7 -29 -2 -15 -12 -16 -12 -5 0 17 19 15
45 -4 64 -14 15 -13 16 8 14 14 -2 22 2 21 9 -2 7 4 10 12 7 8 -4 13 -10 10
-14z m-153 -37 c0 -21 8 -54 17 -74 17 -35 17 -38 0 -60 -10 -13 -19 -18 -19
-11 0 6 -10 12 -22 13 -22 1 -22 1 2 8 18 5 21 9 12 15 -18 11 -42 0 -42 -20
0 -10 -3 -14 -6 -11 -10 10 -13 67 -4 67 4 0 11 12 15 27 11 44 35 97 41 90 3
-3 6 -23 6 -44z m708 -37 c0 -2 -8 -10 -17 -17 -16 -13 -17 -12 -4 4 13 16 21
21 21 13z m16 -18 c-9 -13 -29 -48 -46 -78 -33 -63 -41 -61 -9 3 25 48 58 97
66 97 3 0 -2 -10 -11 -22z m-73 -73 c-15 -30 -29 -53 -31 -51 -4 5 46 106 53
106 3 0 -7 -25 -22 -55z m-668 -25 c3 -6 -1 -7 -9 -4 -18 7 -21 14 -7 14 6 0
13 -4 16 -10z m229 -54 c-7 -18 -32 -28 -39 -16 -4 6 1 10 9 10 9 0 16 5 16
10 0 6 4 10 10 10 5 0 7 -6 4 -14z m-807 -32 c-3 -3 -12 -4 -19 -1 -8 3 -5 6
6 6 11 1 17 -2 13 -5z m46 -11 c-7 -2 -19 -2 -25 0 -7 3 -2 5 12 5 14 0 19 -2
13 -5z m50 -10 c-7 -2 -19 -2 -25 0 -7 3 -2 5 12 5 14 0 19 -2 13 -5z m50 -10
c-7 -2 -19 -2 -25 0 -7 3 -2 5 12 5 14 0 19 -2 13 -5z m87 -13 c20 -6 21 -8 5
-8 -11 0 -33 4 -50 8 -27 7 -27 8 -5 8 14 0 36 -4 50 -8z m143 -30 c9 -10 9
-11 -2 -5 -7 4 -36 11 -65 16 l-51 8 53 -3 c29 -2 59 -9 65 -16z m397 -111 c0
-11 -3 -11 -24 -3 -23 9 -20 23 4 17 11 -3 20 -9 20 -14z"/>
<path d="M6130 6348 c-31 -16 -45 -29 -45 -43 0 -11 -7 -26 -15 -33 -12 -10
-11 -11 10 -3 18 6 24 15 22 30 -3 17 6 25 42 41 25 10 46 22 46 25 0 10 -15
5 -60 -17z"/>
<path d="M5778 6063 c-20 -5 -23 -20 -8 -43 12 -19 25 -5 25 26 1 13 1 23 0
23 0 -1 -8 -3 -17 -6z"/>
<path d="M5074 4079 c-19 -22 -19 -22 3 -10 24 12 39 31 25 31 -5 0 -17 -10
-28 -21z"/>
<path d="M5242 4081 c-11 -6 -10 -10 4 -15 9 -4 22 -2 28 4 8 8 6 9 -8 4 -13
-5 -17 -4 -12 4 8 14 6 15 -12 3z"/>
<path d="M5177 4058 c-9 -5 -17 -6 -17 -3 0 3 -10 -1 -22 -9 -12 -9 -30 -16
-40 -16 -11 0 -18 -7 -18 -19 0 -10 -7 -24 -15 -31 -8 -7 -12 -17 -9 -22 3 -5
13 -1 21 9 13 17 14 17 9 1 -6 -21 5 -23 22 -6 9 9 12 9 12 0 0 -10 5 -10 20
-2 11 6 17 16 14 25 -5 11 -10 12 -26 4 -16 -8 -23 -8 -29 2 -13 21 -11 29 10
29 11 0 23 5 26 10 3 6 20 8 36 5 18 -3 28 -2 25 4 -4 5 2 11 11 13 15 3 16 4
2 10 -8 3 -23 2 -32 -4z"/>
<path d="M5276 4049 c-11 -10 -17 -19 -13 -19 14 0 57 24 57 32 0 14 -24 8
-44 -13z"/>
<path d="M5330 4059 c0 -5 5 -7 10 -4 6 3 10 8 10 11 0 2 -4 4 -10 4 -5 0 -10
-5 -10 -11z"/>
<path d="M4925 4010 c-8 -13 15 -13 35 0 12 8 11 10 -7 10 -12 0 -25 -4 -28
-10z"/>
<path d="M4980 4005 c-17 -20 7 -20 34 0 19 15 19 15 -1 15 -11 0 -26 -7 -33
-15z"/>
<path d="M5031 3999 c-13 -11 -21 -22 -18 -25 9 -9 47 16 47 31 0 19 0 19 -29
-6z"/>
<path d="M5175 3970 c4 -7 -1 -13 -14 -17 -12 -3 -21 -10 -21 -15 0 -11 60 -1
74 12 5 5 15 6 22 3 8 -3 14 0 14 5 0 6 -10 9 -21 7 -12 -2 -31 0 -41 6 -15 8
-19 8 -13 -1z"/>
<path d="M5260 3945 c0 -8 -10 -10 -25 -7 -14 2 -25 0 -25 -7 0 -13 50 -11 68
2 16 13 15 24 -3 24 -8 0 -15 -6 -15 -12z"/>
<path d="M5780 3940 c-8 -5 -11 -12 -7 -17 5 -4 11 -3 15 3 4 6 14 14 22 17
13 5 13 5 0 6 -8 0 -22 -3 -30 -9z"/>
<path d="M470 8162 c0 -49 50 -163 146 -328 30 -53 52 -99 49 -103 -13 -12
-237 253 -283 336 -6 10 -13 15 -17 11 -13 -12 45 -125 147 -285 22 -34 38
-67 36 -73 -2 -6 -54 39 -116 101 -61 62 -112 106 -112 99 0 -7 27 -65 60
-127 33 -63 60 -119 60 -124 0 -5 -10 -3 -22 5 -13 8 -34 17 -46 21 -21 6 -23
4 -17 -15 4 -13 22 -48 41 -79 19 -31 34 -59 34 -63 0 -5 -11 -8 -25 -8 -14 0
-25 -2 -25 -5 0 -2 15 -34 33 -71 30 -61 31 -66 15 -78 -24 -17 -23 -24 12
-76 26 -39 28 -46 15 -60 -21 -23 -19 -36 11 -76 24 -30 25 -38 15 -58 -11
-20 -10 -29 13 -64 14 -23 26 -56 26 -74 0 -21 9 -41 27 -60 30 -32 40 -81 48
-236 3 -54 11 -105 20 -122 8 -16 15 -36 15 -44 0 -17 21 -71 51 -128 10 -20
19 -46 19 -57 0 -12 16 -38 35 -60 19 -21 35 -45 35 -53 0 -8 9 -23 20 -33 11
-10 20 -26 20 -35 0 -10 11 -25 25 -34 14 -9 25 -23 25 -31 0 -27 58 -48 115
-40 49 6 54 4 74 -21 29 -37 15 -50 -60 -58 l-61 -6 -171 97 c-95 53 -225 132
-290 175 -65 44 -134 82 -152 85 -31 5 -35 2 -69 -48 -36 -53 -36 -54 -16 -69
24 -18 17 -30 -17 -30 -12 0 -24 -6 -24 -12 -2 -21 -4 -31 -16 -73 -64 -229
-64 -231 -23 -248 l29 -13 -28 -17 c-33 -20 -44 -65 -30 -123 5 -22 11 -67 12
-101 2 -40 9 -69 19 -80 12 -13 14 -23 7 -35 -13 -23 2 -53 50 -98 20 -19 43
-45 51 -58 14 -21 48 -34 170 -64 54 -13 76 -14 202 -6 54 4 110 13 125 21 15
8 55 50 88 93 75 97 85 104 113 76 27 -27 96 -30 146 -5 35 16 36 16 108 -17
40 -19 122 -72 183 -118 60 -47 128 -99 150 -116 43 -33 93 -75 165 -137 25
-22 67 -59 94 -82 47 -41 108 -122 146 -196 32 -63 108 -123 193 -152 52 -18
53 -17 84 46 11 22 28 54 37 70 17 31 21 66 8 64 -29 -5 -38 3 -37 36 1 19 -2
32 -7 29 -5 -3 -6 -14 -3 -24 3 -10 0 -22 -6 -26 -8 -5 -9 -3 -5 5 5 7 1 20
-7 29 -9 9 -15 22 -14 27 2 24 -33 14 -47 -13 -25 -48 -60 -52 -51 -6 3 13 7
35 10 49 3 14 1 25 -5 25 -6 0 -9 -4 -5 -9 3 -5 1 -12 -4 -15 -5 -3 -11 4 -14
15 -3 12 -10 18 -16 14 -6 -3 -8 -11 -5 -17 4 -6 1 -9 -7 -6 -9 3 -13 19 -12
46 0 23 -3 42 -8 42 -5 0 -9 7 -9 15 0 8 -6 14 -12 13 -8 -2 -12 5 -10 18 2
15 -4 23 -18 27 -13 3 -18 10 -14 21 3 9 11 13 16 10 6 -4 5 -10 -3 -16 -11
-8 -11 -9 -1 -6 8 2 13 7 13 11 -1 4 -1 13 -1 21 0 9 -7 12 -21 9 -17 -5 -19
-2 -16 18 2 13 2 18 0 12 -5 -15 -23 -17 -23 -4 0 5 7 17 16 26 14 13 19 14
26 3 5 -8 6 -2 3 17 -6 28 -5 29 7 9 12 -20 14 -20 28 -6 13 14 12 15 -2 10
-10 -4 -19 -1 -22 8 -8 20 -24 17 -31 -6 -8 -26 -25 -26 -32 0 -3 11 -9 17
-14 14 -5 -3 -9 0 -9 5 0 6 -5 11 -10 11 -6 0 -9 -3 -8 -7 2 -13 -13 -43 -22
-43 -5 0 -6 9 -3 20 5 17 2 18 -26 10 -21 -6 -31 -5 -31 2 0 6 -11 3 -25 -6
-23 -15 -24 -15 -18 1 6 15 4 16 -9 5 -12 -10 -18 -10 -27 2 -8 9 -23 12 -42
9 -22 -3 -35 1 -46 14 -8 10 -12 12 -8 6 8 -17 -5 -16 -29 2 -20 15 -20 15 0
16 10 1 23 1 27 0 5 -1 1 9 -7 21 -16 23 -19 24 -54 27 -10 0 -26 7 -35 14
-15 10 -11 12 24 13 33 0 47 6 67 30 15 17 33 28 46 27 20 -3 19 -2 -1 7 -19
8 -23 18 -24 55 -1 25 -3 50 -4 55 -1 6 -3 18 -4 28 -1 10 -4 13 -9 7 -10 -14
-66 -19 -57 -6 3 6 1 11 -6 11 -8 0 -8 4 1 15 7 8 16 12 21 9 5 -3 9 -3 9 0 0
9 -72 37 -115 45 -68 11 -48 31 71 70 174 59 236 94 402 229 102 83 177 117
220 101 31 -12 39 -5 21 17 -7 9 -12 31 -10 49 1 19 -3 43 -9 54 -29 56 -140
67 -260 26 -87 -30 -140 -33 -140 -9 0 9 18 52 40 96 33 67 39 86 34 121 -5
32 -2 46 10 56 23 20 20 62 -9 101 -14 19 -25 46 -25 60 0 40 -35 166 -70 250
-36 86 -54 111 -47 63 4 -26 1 -32 -16 -37 -16 -4 -32 4 -57 29 -43 42 -53 44
-47 8 5 -32 -8 -73 -22 -73 -6 0 -27 15 -47 33 l-37 32 6 -32 c5 -28 -4 -43
-28 -43 -2 0 -11 24 -21 53 -21 64 -18 61 -42 46 -11 -7 -26 -10 -34 -6 -8 3
-45 56 -81 119 -36 62 -105 169 -152 238 -330 477 -399 602 -440 787 -25 112
-24 110 -36 93 -22 -35 12 -162 78 -298 71 -143 48 -135 -74 26 -48 64 -122
196 -148 265 -18 48 -35 62 -35 29z m197 -529 c84 -84 97 -106 28 -46 -76 64
-112 103 -97 103 6 0 37 -26 69 -57z m-52 -83 c25 -22 50 -40 54 -40 5 0 16
-12 26 -26 20 -31 15 -29 -71 32 -57 40 -86 74 -64 74 5 0 30 -18 55 -40z m-7
-114 c39 -25 81 -66 67 -66 -18 0 -95 52 -105 70 -14 26 -8 25 38 -4z m103
-183 c9 -10 7 -13 -7 -13 -29 0 -98 43 -102 64 -3 16 2 15 47 -10 28 -15 56
-33 62 -41z m-9 -104 c76 -46 98 -68 46 -46 -93 41 -126 58 -138 72 -24 29 22
16 92 -26z m673 -1096 c-11 -3 -27 -10 -35 -17 -13 -10 -13 -9 -1 7 7 9 23 16
35 16 20 -1 20 -2 1 -6z m-107 -421 c6 -18 -15 -14 -22 4 -4 10 -1 14 6 12 6
-2 14 -10 16 -16z m147 -60 c0 -18 -20 -15 -23 4 -3 10 1 15 10 12 7 -3 13
-10 13 -16z"/>
<path d="M9293 7963 c-7 -2 -13 -11 -13 -19 0 -8 -5 -14 -10 -14 -6 0 -15 -11
-20 -25 -12 -31 9 -104 43 -148 13 -18 27 -43 30 -58 13 -52 87 -107 185 -135
20 -6 14 -39 -12 -63 -14 -13 -47 -33 -74 -46 -61 -28 -85 -62 -86 -119 -2
-73 45 -102 81 -50 35 51 85 103 104 109 10 4 32 -1 48 -11 28 -16 32 -16 114
10 78 24 117 46 117 65 0 4 -11 22 -24 40 -14 19 -22 40 -19 49 4 10 30 42 58
72 29 31 56 66 60 79 4 12 23 37 42 55 70 64 2 78 -90 19 -33 -20 -66 -38 -75
-39 -22 -4 -82 23 -82 35 0 19 -39 51 -61 51 -11 0 -41 14 -67 32 -48 33 -215
119 -229 117 -4 0 -14 -3 -20 -6z"/>
<path d="M7797 7663 c-18 -17 -2 -69 53 -180 56 -113 63 -121 94 -127 73 -14
68 -51 -16 -119 -52 -41 -77 -55 -132 -71 -39 -11 -41 -14 -44 -55 -7 -93 23
-88 89 14 42 66 79 89 102 66 17 -17 58 -13 133 14 38 14 70 25 71 25 11 0 -1
29 -16 42 -16 13 -18 23 -12 45 8 27 67 120 98 155 8 9 12 22 8 28 -4 7 -25 1
-62 -20 -64 -37 -99 -34 -136 9 -13 16 -34 34 -47 41 -13 7 -54 41 -91 76 -67
63 -79 70 -92 57z"/>
<path d="M2184 7195 c3 -10 0 -12 -12 -9 -12 4 -10 0 6 -13 26 -21 37 -60 17
-60 -8 0 -11 7 -7 16 5 13 3 14 -10 4 -8 -7 -17 -10 -21 -7 -3 3 -3 -5 0 -18
3 -17 2 -19 -5 -9 -5 7 -15 10 -21 7 -16 -10 55 -83 94 -96 27 -9 37 -21 55
-66 20 -47 30 -59 71 -79 111 -57 57 -105 -117 -105 -30 0 -54 -5 -54 -10 0
-19 99 -102 150 -126 67 -31 75 -30 90 6 18 43 56 80 82 80 14 0 38 -15 59
-38 25 -27 59 -46 122 -69 48 -18 96 -33 107 -33 18 0 19 3 8 20 -7 11 -19 20
-26 20 -15 0 -34 43 -21 48 5 2 6 8 3 14 -4 6 1 8 15 3 12 -4 21 -2 21 4 0 16
48 25 65 11 8 -6 20 -10 27 -8 14 5 -33 55 -91 98 -19 14 -45 36 -57 49 -30
30 -32 76 -4 91 11 6 20 15 20 20 0 15 -51 11 -80 -5 -14 -8 -40 -14 -58 -15
-37 0 -57 19 -106 101 -26 43 -40 56 -76 69 -25 9 -70 32 -100 52 -68 43 -155
75 -146 53z"/>
<path d="M9170 7065 c0 -12 34 -72 66 -116 40 -55 42 -69 10 -69 -17 0 -51 25
-105 76 -45 42 -84 74 -87 71 -3 -3 22 -34 55 -70 34 -35 61 -70 61 -76 0 -31
-88 -3 -159 51 -13 10 -28 18 -33 18 -21 0 19 -45 90 -102 42 -33 78 -64 80
-68 3 -9 -29 -4 -121 17 -37 8 -71 12 -75 8 -4 -4 10 -21 31 -38 43 -37 44
-43 15 -74 l-21 -23 23 -25 c18 -19 22 -32 17 -58 -3 -19 -1 -39 5 -45 6 -6
14 -28 18 -49 16 -77 55 -170 102 -240 15 -23 28 -54 28 -70 1 -15 7 -39 15
-53 8 -14 14 -37 15 -51 0 -15 9 -38 20 -52 11 -14 20 -34 20 -45 0 -11 6 -25
13 -31 8 -6 19 -29 26 -51 6 -22 16 -40 21 -40 5 0 17 -14 25 -31 l16 -30 77
3 c54 2 77 -1 77 -9 0 -6 -43 -57 -95 -113 -77 -83 -107 -107 -165 -135 -38
-18 -87 -37 -107 -40 -21 -4 -42 -13 -48 -20 -15 -18 -5 -180 15 -235 9 -26
39 -70 70 -103 54 -58 55 -59 97 -52 24 4 46 10 50 14 4 3 26 58 48 121 23 63
48 134 56 157 10 28 24 45 43 52 15 7 35 25 45 42 26 44 55 36 82 -21 38 -80
53 -80 206 -5 72 36 140 65 151 65 11 0 29 8 40 17 10 10 42 29 70 43 47 22
52 28 51 56 -1 17 -13 49 -28 72 -26 42 -27 42 -54 28 -16 -8 -46 -16 -67 -18
-71 -6 -58 22 65 146 117 118 154 141 201 124 19 -7 22 -7 12 3 -7 7 -13 27
-13 44 0 36 -7 48 -37 64 -33 17 -65 14 -163 -19 -121 -40 -154 -40 -180 3
-31 49 -80 211 -80 262 0 48 -20 135 -31 135 -4 0 -12 -7 -19 -15 -26 -31 -48
-16 -109 73 -33 48 -113 143 -177 212 -65 70 -145 168 -180 223 -57 87 -74
108 -74 92z m561 -1455 c5 0 8 -13 7 -30 -2 -24 -6 -29 -26 -27 -12 1 -31 10
-40 20 -16 18 -16 20 3 33 11 8 26 12 33 9 8 -3 18 -5 23 -5z"/>
<path d="M7660 6437 c0 -10 43 -52 53 -52 7 0 21 -17 32 -37 11 -21 26 -38 33
-38 7 0 15 -7 18 -15 4 -8 10 -12 15 -9 5 3 14 -6 21 -20 6 -14 14 -26 18 -26
3 0 12 -16 19 -35 10 -30 10 -37 -3 -51 -9 -8 -27 -17 -42 -18 -16 -2 -32 -14
-45 -35 -27 -45 -73 -69 -146 -77 l-65 -7 6 -36 c4 -20 9 -48 12 -63 6 -32 42
-48 55 -25 5 8 27 38 48 65 42 52 89 71 122 48 16 -11 19 -16 19 -37 0 -7 10
-9 28 -4 38 9 52 25 22 25 -24 1 -24 1 -6 15 11 8 16 15 10 15 -18 0 22 20 41
20 15 0 24 10 30 33 8 24 34 50 110 106 54 41 93 77 86 79 -7 2 -43 -7 -80
-21 -134 -51 -176 -40 -226 56 -24 45 -35 57 -61 61 -17 4 -40 16 -50 27 -20
22 -74 63 -74 56z"/>
<path d="M7546 6410 c6 -8 26 -53 43 -100 41 -109 68 -144 128 -164 57 -20 73
-20 73 -3 0 22 -34 47 -62 47 -15 0 -33 3 -42 6 -14 5 -86 140 -86 161 0 5
-14 22 -32 39 -18 16 -27 22 -22 14z"/>
<path d="M7972 6015 c-14 -16 -9 -18 25 -9 13 4 20 10 17 15 -8 13 -27 10 -42
-6z"/>
<path d="M7920 5990 c0 -5 7 -7 15 -4 8 4 15 8 15 10 0 2 -7 4 -15 4 -8 0 -15
-4 -15 -10z"/>
<path d="M5360 5860 c-9 -6 -10 -10 -3 -10 6 0 15 5 18 10 8 12 4 12 -15 0z"/>
<path d="M5336 5732 c-3 -5 1 -9 9 -9 8 0 12 4 9 9 -3 4 -7 8 -9 8 -2 0 -6 -4
-9 -8z"/>
<path d="M5385 5730 c-3 -6 1 -7 9 -4 18 7 21 14 7 14 -6 0 -13 -4 -16 -10z"/>
<path d="M5337 5693 c3 -7 6 -13 8 -13 2 0 5 6 8 13 3 8 -1 14 -8 14 -7 0 -11
-6 -8 -14z"/>
<path d="M5367 5683 c-13 -12 -7 -22 10 -16 11 4 14 3 9 -5 -4 -7 -3 -12 1
-12 12 0 33 22 33 35 0 5 -5 3 -10 -5 -6 -10 -10 -11 -10 -2 0 13 -22 17 -33
5z"/>
<path d="M5320 5658 c0 -4 4 -8 9 -8 6 0 12 4 15 8 3 5 -1 9 -9 9 -8 0 -15 -4
-15 -9z"/>
<path d="M5387 5605 c-4 -8 -3 -16 1 -19 4 -3 9 4 9 15 2 23 -3 25 -10 4z"/>
<path d="M5414 5589 c-3 -6 -2 -15 3 -20 5 -5 9 -1 9 11 0 23 -2 24 -12 9z"/>
<path d="M1645 5541 c-3 -5 -1 -12 5 -16 5 -3 10 -14 10 -24 0 -10 9 -21 20
-24 11 -3 19 -11 18 -19 -2 -8 7 -14 22 -15 52 -3 55 -3 45 -11 -5 -4 -11 -13
-13 -20 -2 -10 3 -10 20 2 26 19 50 22 25 4 -15 -11 -13 -13 17 -14 19 0 33 3
30 7 -2 4 1 11 7 15 8 4 9 3 5 -4 -4 -7 -1 -12 9 -12 9 0 14 -4 11 -8 -3 -5 0
-9 7 -9 42 -2 112 -15 117 -22 3 -4 22 -16 43 -26 20 -9 37 -21 37 -26 0 -5
11 -9 25 -9 26 0 95 -39 95 -53 0 -5 -3 -6 -7 -4 -5 3 -8 -5 -8 -18 0 -13 2
-22 4 -20 2 2 12 -6 23 -18 11 -12 17 -16 13 -10 -4 9 -1 11 9 7 12 -5 13 -10
5 -27 -9 -16 -9 -19 4 -14 10 4 17 -2 21 -19 4 -14 18 -38 32 -54 14 -15 26
-32 27 -37 0 -4 9 -17 19 -27 10 -11 18 -26 18 -35 0 -8 3 -12 6 -8 7 7 19 -5
51 -49 27 -38 28 -48 19 -105 -10 -56 -44 -101 -129 -166 -34 -26 -70 -58 -80
-70 -10 -13 -23 -21 -28 -17 -6 3 -30 -13 -54 -35 -25 -23 -53 -41 -62 -41
-32 -1 -286 41 -403 66 -124 26 -190 30 -221 14 -28 -15 -49 -63 -49 -110 0
-23 -7 -54 -15 -69 -8 -16 -17 -43 -20 -60 -7 -43 30 -240 55 -288 34 -66 168
-175 230 -188 19 -4 54 -18 77 -31 57 -33 172 -35 258 -5 33 12 66 21 73 21 8
0 64 22 126 49 61 27 128 52 149 55 37 7 88 48 135 110 l22 29 94 -6 c105 -6
106 -6 106 73 l0 35 -53 1 c-37 1 -61 7 -75 20 -24 20 -29 53 -10 72 9 9 9 12
1 12 -16 0 -25 33 -17 64 4 18 30 41 87 77 125 79 169 120 258 242 45 62 96
127 113 145 38 41 98 73 139 74 30 1 30 1 10 18 -20 16 -20 17 -2 28 47 30 -2
90 -79 98 -31 3 -70 -3 -117 -17 -105 -32 -110 -32 -128 -14 -10 9 -17 13 -17
8 0 -4 -14 -9 -31 -10 -17 -1 -36 -6 -43 -11 -6 -4 -18 -8 -26 -7 -8 1 -37 3
-65 4 -45 1 -48 3 -32 16 11 7 25 11 33 8 9 -3 14 1 14 12 0 9 4 14 9 10 5 -3
13 4 16 16 4 12 10 17 14 11 7 -12 25 5 29 29 2 13 -5 14 -54 4 -30 -6 -58
-16 -62 -22 -4 -6 -25 -14 -47 -18 -75 -12 -83 -15 -88 -35 -3 -14 3 -26 20
-40 15 -11 24 -23 21 -25 -10 -10 -138 127 -232 248 -100 129 -195 228 -260
271 -40 27 -62 34 -51 16 3 -5 -6 -12 -21 -16 -19 -5 -64 6 -151 35 -129 43
-148 47 -158 32z m587 -1205 c40 -7 50 -22 42 -66 -10 -49 -63 -72 -92 -40
-31 33 -52 64 -52 76 0 20 31 45 49 40 9 -2 32 -7 53 -10z m168 -51 c14 -17
46 -20 55 -5 8 12 55 13 55 1 0 -4 -5 -21 -10 -38 -10 -28 -14 -30 -58 -28
-83 3 -91 5 -102 25 -22 40 31 80 60 45z"/>
<path d="M5475 5530 c-3 -5 -1 -10 4 -10 6 0 11 5 11 10 0 6 -2 10 -4 10 -3 0
-8 -4 -11 -10z"/>
<path d="M5736 5501 c-4 -5 -2 -12 3 -15 5 -4 12 -2 15 3 4 5 2 12 -3 15 -5 4
-12 2 -15 -3z"/>
<path d="M5376 5487 c3 -10 9 -15 12 -12 3 3 0 11 -7 18 -10 9 -11 8 -5 -6z"/>
<path d="M1660 5461 c0 -11 17 -33 26 -34 5 -1 9 -12 8 -24 l0 -23 23 22 c23
21 30 34 15 24 -11 -7 -54 23 -48 33 3 4 -1 8 -9 8 -8 0 -15 -3 -15 -6z"/>
<path d="M5315 5460 c-3 -5 -1 -10 4 -10 6 0 11 5 11 10 0 6 -2 10 -4 10 -3 0
-8 -4 -11 -10z"/>
<path d="M5357 5450 c-3 -11 -1 -20 4 -20 5 0 9 9 9 20 0 11 -2 20 -4 20 -2 0
-6 -9 -9 -20z"/>
<path d="M5340 5400 c0 -5 5 -10 11 -10 5 0 7 5 4 10 -3 6 -8 10 -11 10 -2 0
-4 -4 -4 -10z"/>
<path d="M5380 5294 c-25 -55 -36 -71 -40 -58 -6 16 -7 16 -13 1 -3 -9 -2 -19
3 -22 5 -3 6 -13 3 -23 -5 -14 -2 -14 14 3 21 21 87 175 75 175 -4 0 -23 -34
-42 -76z"/>
<path d="M1970 5356 c0 -2 7 -7 16 -10 8 -3 12 -2 9 4 -6 10 -25 14 -25 6z"/>
<path d="M5450 5331 c-6 -16 -21 -39 -32 -51 -11 -12 -18 -23 -15 -26 6 -7 67
77 67 93 0 21 -7 15 -20 -16z"/>
<path d="M5306 5185 c-9 -13 -16 -31 -16 -39 0 -8 -4 -18 -10 -21 -5 -3 -15
-16 -21 -28 -6 -12 7 -2 28 23 21 24 38 54 38 67 1 28 1 28 -19 -2z"/>
<path d="M5574 5153 c-22 -27 -50 -66 -63 -88 l-23 -40 26 24 c14 14 24 27 21
29 -9 9 17 32 28 25 5 -3 7 -1 3 5 -3 6 -2 13 3 16 9 6 53 76 47 76 -1 0 -21
-21 -42 -47z"/>
<path d="M5420 4969 c-39 -36 -43 -42 -15 -21 37 28 83 72 74 72 -2 0 -29 -23
-59 -51z"/>
<path d="M8380 4861 c0 -6 -13 -11 -30 -11 -18 0 -30 -5 -30 -13 0 -22 38 -60
50 -52 9 6 9 2 1 -12 -6 -11 -8 -23 -5 -26 3 -3 -2 -4 -13 -2 -10 1 -17 8 -16
13 2 6 -4 9 -13 5 -11 -4 -12 -8 -4 -13 8 -5 6 -9 -6 -14 -10 -4 -15 -4 -11 0
4 4 1 14 -5 22 -16 18 -19 44 -8 57 6 7 3 11 -9 11 -10 0 -18 -7 -17 -16 1 -8
-9 -19 -21 -25 -28 -12 -29 -26 -3 -50 14 -13 17 -22 10 -29 -15 -15 -12 -42
5 -56 9 -7 15 -29 15 -51 0 -21 5 -41 10 -44 6 -4 10 -21 8 -38 -1 -18 4 -42
10 -54 7 -12 12 -37 12 -55 0 -40 3 -45 58 -87 29 -22 42 -40 42 -57 0 -13 5
-24 10 -24 6 0 10 -6 10 -14 0 -28 63 -134 86 -145 13 -6 24 -16 24 -22 0 -15
79 -91 122 -117 38 -24 106 -29 138 -12 34 18 30 -6 -9 -58 -21 -28 -53 -85
-71 -127 -44 -107 -84 -171 -152 -239 -58 -58 -65 -76 -58 -140 7 -64 100
-108 161 -76 23 13 50 64 73 140 30 95 58 149 90 170 17 11 45 29 61 40 38 25
75 26 75 2 0 -10 -4 -22 -10 -28 -13 -13 20 -109 53 -149 24 -30 25 -30 63
-16 21 8 79 33 129 56 49 23 106 48 125 55 63 22 158 68 165 79 10 17 -73 161
-93 161 -9 -1 -28 -7 -42 -15 -32 -18 -74 -19 -89 -1 -7 8 -15 31 -18 51 -5
34 -2 41 44 88 28 29 71 84 97 124 64 100 116 134 165 108 16 -8 31 -11 35 -8
12 12 6 44 -9 49 -8 4 -15 16 -15 29 0 34 -36 73 -80 86 -45 14 -114 -1 -153
-31 -12 -10 -45 -24 -72 -32 -45 -12 -70 -14 -126 -9 -24 2 -117 78 -124 102
-4 11 -24 40 -46 65 -24 28 -39 55 -39 72 0 15 -9 37 -18 50 -16 21 -20 22
-31 8 -28 -33 -60 -19 -145 62 -155 148 -266 243 -276 237 -6 -4 -26 3 -45 15
-19 12 -35 17 -35 11z m-17 -145 c-4 -5 1 -7 10 -3 12 5 17 1 17 -13 0 -11 5
-20 11 -20 8 0 8 -4 0 -14 -6 -8 -10 -20 -9 -27 2 -9 -8 -14 -29 -15 -21 -1
-30 3 -26 11 2 7 -1 16 -6 20 -6 3 -9 11 -6 16 4 5 0 9 -7 10 -7 0 -4 4 7 9
11 5 14 9 8 9 -7 1 -13 8 -13 16 0 10 9 14 24 13 14 -1 22 -7 19 -12z m882
-910 c8 -13 13 -30 10 -38 -12 -32 -152 -65 -156 -38 -1 6 -2 14 -3 19 -1 13
95 80 116 80 10 1 24 -10 33 -23z"/>
<path d="M4935 4849 c-11 -17 -2 -18 19 -3 17 12 17 14 4 14 -9 0 -20 -5 -23
-11z"/>
<path d="M6818 4423 c-43 -7 -35 -37 30 -106 31 -34 60 -63 64 -65 3 -2 18
-13 33 -26 21 -18 24 -25 13 -34 -23 -19 -92 -29 -161 -25 -55 4 -68 2 -73
-11 -9 -24 64 -170 105 -210 46 -45 59 -42 107 32 46 69 47 70 99 70 56 0 224
32 231 44 3 5 -2 18 -12 29 -16 17 -19 18 -35 3 -12 -11 -19 -12 -24 -4 -10
16 2 40 20 40 8 0 15 4 15 9 0 6 23 37 50 71 67 80 53 101 -42 62 -55 -23 -72
-19 -98 23 -30 49 -74 70 -184 89 -53 9 -100 15 -104 15 -4 -1 -19 -4 -34 -6z
m267 -313 c-3 -5 -11 -10 -16 -10 -6 0 -7 5 -4 10 3 6 11 10 16 10 6 0 7 -4 4
-10z"/>
<path d="M10150 4250 c0 -13 -1 -13 -10 0 -7 11 -10 11 -10 2 0 -8 -5 -10 -12
-6 -9 5 -10 4 -3 -4 6 -5 19 -12 30 -15 13 -3 9 -5 -12 -6 -17 0 -35 -5 -38
-11 -3 -5 -19 -10 -36 -10 -19 0 -29 -5 -29 -15 0 -8 -4 -15 -10 -15 -5 0 -10
9 -10 20 0 11 -4 20 -10 20 -5 0 -7 -6 -4 -14 3 -9 -4 -15 -21 -18 -21 -4 -25
-2 -20 11 5 12 3 13 -5 4 -9 -8 -9 -16 -1 -30 6 -11 11 -13 11 -5 0 8 9 12 23
10 12 -2 21 -9 20 -15 -2 -7 4 -10 13 -6 12 4 14 0 8 -21 -4 -16 -2 -26 5 -26
6 0 8 7 5 15 -4 8 -2 15 3 15 13 0 34 -40 27 -51 -3 -6 2 -10 12 -9 11 1 30 1
44 1 25 -2 25 -2 3 -11 -13 -5 -23 -15 -22 -22 0 -10 2 -10 6 0 2 6 11 12 19
12 9 0 13 -4 10 -9 -12 -19 5 -36 37 -36 30 0 37 4 37 23 0 4 -4 0 -10 -8 -5
-8 -12 -11 -16 -7 -4 3 -1 13 6 22 11 13 14 12 29 -6 l17 -21 1 21 c1 14 -2
19 -10 14 -9 -5 -9 -3 0 8 8 10 12 50 12 111 l0 96 -45 4 c-34 2 -44 0 -44
-12z m34 -16 c3 -8 2 -12 -4 -9 -6 3 -10 10 -10 16 0 14 7 11 14 -7z m0 -189
c-4 -8 -12 -15 -20 -15 -8 0 -14 7 -14 15 0 8 9 15 20 15 13 0 18 -5 14 -15z"/>
<path d="M810 4146 c-13 -13 -13 -43 0 -51 13 -8 -7 -53 -41 -90 -35 -40 -41
-70 -18 -90 32 -30 34 -70 4 -121 -23 -39 -25 -50 -16 -71 13 -28 13 -79 1
-108 -5 -11 -9 -17 -9 -13 -1 4 -19 -11 -42 -33 -29 -29 -39 -45 -33 -57 13
-30 17 -192 5 -192 -6 0 -11 -7 -11 -16 0 -8 -4 -13 -9 -10 -14 9 -84 -63 -77
-79 3 -8 1 -15 -4 -15 -5 0 -12 -9 -15 -20 -8 -25 -65 -80 -83 -80 -7 0 -23
-12 -36 -27 -15 -17 -33 -26 -53 -27 -17 -1 -31 1 -31 4 0 3 0 12 -1 20 -1 13
-2 13 -11 0 -9 -13 -12 -12 -25 4 -13 17 -15 18 -15 3 0 -17 -39 -24 -54 -10
-11 11 -216 9 -216 -2 0 -5 -5 -3 -10 5 -6 10 -10 -528 -10 -1527 l0 -1543
2380 0 2380 0 0 23 c0 34 28 67 55 67 29 0 60 -41 52 -70 -5 -20 1 -20 2684
-20 l2689 0 0 1548 c0 1002 -4 1542 -10 1532 -7 -11 -10 -11 -10 -2 0 7 -5 10
-10 7 -6 -4 -18 -1 -27 7 -9 7 -14 8 -10 2 4 -7 -4 -19 -17 -27 -20 -13 -27
-14 -49 -2 -23 12 -29 12 -41 -1 -9 -9 -17 -10 -21 -4 -3 5 -11 10 -16 10 -6
0 -7 -5 -3 -11 4 -8 1 -8 -12 -1 -14 7 -29 6 -53 -4 -18 -8 -37 -12 -41 -9 -5
3 -20 1 -34 -5 -17 -6 -26 -6 -26 0 0 6 5 10 11 10 5 0 7 5 4 10 -4 7 -12 7
-25 0 -10 -5 -26 -7 -34 -4 -12 4 -15 2 -11 -9 4 -8 -1 -17 -9 -20 -10 -4 -13
-1 -9 9 3 7 0 14 -6 14 -6 0 -11 -4 -11 -10 0 -5 -17 -9 -37 -8 -21 0 -42 -1
-48 -2 -54 -15 -115 6 -115 39 0 8 3 12 6 8 3 -3 22 12 42 34 20 21 45 39 57
39 34 0 47 15 43 51 -4 49 -40 64 -99 44 -68 -25 -196 -9 -233 28 -22 22 -265
107 -305 107 -24 0 -28 -15 -7 -23 8 -3 33 -35 57 -71 24 -36 48 -66 54 -66
20 -1 45 -28 39 -43 -6 -17 -78 -45 -144 -56 -62 -10 -89 -27 -106 -66 -17
-43 -17 -83 1 -160 11 -49 12 -57 0 -42 -9 12 -15 15 -20 7 -5 -8 -10 -8 -20
0 -10 8 -21 7 -45 -5 -17 -9 -28 -20 -25 -24 2 -5 -3 -8 -13 -7 -9 0 -21 7
-25 14 -6 10 -11 9 -23 -2 -10 -11 -22 -12 -46 -5 -17 5 -34 6 -37 4 -2 -3 2
-5 10 -6 8 0 3 -5 -10 -10 -17 -7 -27 -6 -31 2 -6 8 -9 8 -14 0 -4 -6 -16 -11
-27 -11 -10 0 -19 -5 -19 -10 0 -7 -7 -7 -22 1 -17 9 -20 9 -15 -4 4 -11 0
-13 -14 -10 -10 3 -25 1 -32 -5 -7 -6 -27 -9 -45 -7 -18 2 -31 1 -28 -3 3 -5
-4 -13 -15 -20 -15 -10 -19 -10 -19 0 0 9 -3 9 -12 0 -18 -18 -28 -14 -28 11
0 15 -3 18 -8 9 -5 -7 -22 -15 -38 -18 -16 -2 -34 -6 -40 -9 -7 -2 -10 4 -7
16 3 10 0 19 -6 19 -6 0 -11 -7 -11 -16 0 -14 -3 -14 -15 -4 -12 10 -15 9 -15
-6 0 -13 -3 -15 -8 -7 -5 7 -22 15 -40 17 -17 2 -39 9 -48 17 -13 10 -17 10
-24 -1 -7 -12 -11 -12 -25 0 -15 12 -19 12 -29 0 -7 -10 -30 -15 -71 -15 -72
0 -80 -2 -64 -21 17 -20 5 -28 -14 -9 -21 20 -27 19 -27 -4 0 -24 -16 -36 -24
-19 -4 10 -8 10 -11 2 -3 -7 -15 -10 -25 -7 -14 4 -21 -2 -26 -21 -5 -22 -8
-24 -21 -11 -18 19 -27 19 -43 0 -7 -8 -16 -12 -22 -9 -5 3 -15 1 -22 -5 -11
-9 -12 -6 -9 16 3 26 3 27 -6 6 -11 -25 -37 -32 -27 -7 3 8 2 12 -4 9 -6 -3
-10 -14 -10 -23 0 -14 -2 -14 -9 -3 -11 16 -34 5 -24 -12 4 -7 -1 -6 -11 2
-13 11 -16 11 -14 1 2 -9 -11 -13 -45 -14 -27 -1 -51 -6 -55 -11 -8 -12 -270
-12 -294 -1 -28 13 -33 -19 -8 -46 13 -14 20 -32 17 -45 -3 -15 1 -23 9 -23 8
0 14 -4 14 -9 0 -9 -59 -24 -100 -25 -14 -1 -31 -5 -39 -10 -10 -6 -12 -6 -7
2 8 13 -3 16 -56 13 -22 -2 -38 2 -38 8 0 6 -5 11 -10 11 -12 0 -59 50 -60 63
0 4 7 7 16 7 8 0 12 5 9 10 -5 8 -12 7 -22 -1 -12 -10 -16 -10 -23 1 -7 11
-11 11 -23 1 -9 -7 -18 -8 -21 -2 -3 5 -15 7 -26 4 -11 -3 -17 -10 -13 -16 3
-6 1 -7 -5 -3 -7 4 -12 14 -12 22 0 19 -10 18 -27 -3 -14 -17 -14 -17 -8 1 6
19 5 19 -13 3 -22 -20 -33 -22 -28 -4 1 6 1 9 -1 5 -3 -5 -11 -8 -18 -8 -17 0
-28 -30 -16 -44 6 -7 6 -18 1 -26 -5 -8 -6 -26 -4 -40 4 -18 -1 -31 -18 -45
-23 -20 -23 -20 -8 0 14 18 14 19 -2 6 -10 -7 -16 -17 -13 -21 3 -5 2 -15 -1
-23 -8 -22 -72 -20 -84 3 -13 25 -13 32 3 25 6 -4 3 1 -7 9 -26 21 -82 21 -90
0 -5 -12 -2 -15 11 -10 14 6 15 4 7 -4 -9 -9 -17 -9 -33 -1 -11 6 -40 12 -63
14 -24 1 -46 6 -50 12 -5 7 -11 7 -15 0 -5 -5 -21 -11 -38 -12 -22 -2 -26 0
-15 7 11 7 7 10 -16 10 -17 0 -37 -6 -43 -14 -7 -8 -21 -13 -32 -11 -11 2 -22
-2 -26 -10 -3 -8 -9 -13 -13 -10 -4 3 -11 -3 -15 -13 -12 -28 -14 -62 -4 -62
5 0 9 -10 9 -22 0 -15 11 -29 30 -40 37 -21 46 -42 32 -72 -16 -35 -48 -38
-83 -9 -27 23 -39 26 -105 25 -41 -1 -74 3 -74 8 0 6 -6 10 -13 10 -8 0 -30
16 -50 35 -36 35 -37 35 -37 12 0 -13 -9 -32 -19 -41 -19 -17 -33 -19 -238
-25 -16 -1 -23 -9 -28 -32 -4 -18 -10 -27 -14 -20 -11 17 -47 -29 -55 -70 -4
-19 -8 -43 -9 -54 -1 -11 -5 -24 -8 -30 -4 -5 -6 -36 -6 -67 0 -34 -7 -72 -18
-95 -10 -21 -20 -51 -22 -68 -6 -53 -14 -66 -46 -73 -18 -3 -35 -5 -39 -4 -5
1 -8 -3 -8 -8 0 -6 6 -10 13 -10 8 0 7 -4 -3 -10 -11 -7 -12 -10 -2 -10 13 0
13 -14 3 -89 -1 -2 -7 -1 -15 2 -8 3 -17 0 -20 -8 -3 -8 -24 -20 -47 -26 -40
-12 -43 -12 -65 15 -13 15 -24 35 -24 45 0 29 37 69 71 76 26 6 28 9 17 23 -7
9 -8 13 -2 9 6 -3 11 0 11 8 0 8 -4 12 -8 10 -4 -3 -9 2 -13 10 -3 8 -1 17 5
21 6 4 3 14 -8 27 -10 11 -13 17 -6 14 6 -4 14 -3 18 3 3 5 1 10 -4 10 -6 0
-11 11 -11 23 0 26 -27 88 -43 98 -6 4 -7 14 -4 23 4 10 1 16 -8 16 -8 0 -15
6 -15 13 0 6 -5 29 -11 50 -7 26 -15 37 -24 33 -9 -3 -12 0 -8 9 3 8 8 13 12
10 4 -2 5 10 3 27 -3 18 -1 28 5 25 5 -3 10 0 10 8 0 8 -7 17 -14 19 -9 4 -11
1 -7 -6 4 -7 3 -8 -4 -4 -7 4 -12 14 -12 22 0 8 -8 14 -17 14 -17 1 -17 1 0
14 17 13 17 14 0 22 -10 4 -23 8 -29 9 -6 0 -18 6 -26 13 -9 7 -23 9 -32 6
-14 -5 -14 -9 -4 -22 11 -13 11 -14 0 -8 -7 4 -23 2 -35 -6 -20 -12 -39 -14
-59 -8 -19 6 -66 4 -62 -2 8 -12 -59 3 -76 17 -8 7 -40 16 -70 20 -30 4 -64 9
-75 11 -58 12 -99 14 -85 4 16 -11 15 -11 -17 -15 -13 -1 -23 3 -23 9 0 6 -5
4 -10 -4 -6 -9 -10 -10 -10 -3 0 8 -12 11 -35 8 -20 -3 -35 0 -35 5 0 6 -25
10 -55 10 -60 0 -65 6 -40 54 19 37 14 41 -24 22 -34 -18 -61 -21 -61 -6 0 5
8 14 18 19 14 9 13 10 -11 11 -16 0 -38 5 -49 11 -19 10 -26 7 -55 -26 -18
-20 -33 -42 -33 -49 0 -6 5 -4 10 4 8 13 10 13 10 -2 0 -9 3 -25 6 -35 6 -16
5 -16 -10 2 -10 11 -15 15 -12 8 9 -17 -15 -28 -26 -12 -7 11 -8 9 -6 -6 2
-15 -3 -20 -20 -20 -12 0 -27 -7 -33 -15 -8 -12 -9 -10 -4 8 7 23 -9 32 -18
10 -4 -10 -8 -10 -15 1 -8 11 -11 10 -15 -5 -4 -16 -5 -17 -6 -1 0 9 -8 17
-17 17 -8 0 -22 6 -29 12 -29 26 -41 34 -60 42 -16 6 -18 5 -7 -5 19 -20 14
-28 -12 -23 -13 2 -29 -2 -36 -11 -8 -10 -21 -13 -38 -8 -20 5 -24 3 -19 -10
4 -11 2 -14 -9 -10 -16 6 -19 23 -4 23 6 0 10 5 10 10 0 6 -7 10 -15 10 -25 0
-65 -23 -65 -37 0 -12 -3 -11 -16 2 -10 10 -26 14 -37 11 -12 -3 -26 2 -34 12
-13 16 -14 15 -10 -3 3 -17 -2 -20 -36 -22 -33 -2 -37 0 -28 11 9 11 9 16 0
22 -8 5 -9 3 -4 -6 5 -9 2 -10 -13 -6 -12 4 -26 1 -35 -9 -20 -19 -33 -20 -17
0 10 11 9 18 -4 30 -9 9 -16 20 -16 25 0 5 -13 7 -29 4 -29 -6 -30 -6 -33 42
l-3 49 -34 -3 c-55 -6 -32 20 45 49 59 22 76 34 117 85 26 32 58 77 70 98 26
47 65 77 101 79 24 2 26 5 22 46 -6 76 -72 103 -159 66 -50 -21 -71 -20 -62 3
4 9 9 60 11 112 2 80 0 98 -16 115 -10 11 -21 36 -25 55 -17 85 -149 300 -184
300 -13 0 -21 -10 -25 -34 -4 -19 -18 -45 -31 -58 -14 -13 -25 -28 -25 -34 0
-5 -13 -28 -29 -50 -16 -21 -32 -49 -35 -61 -4 -13 -13 -23 -19 -24 -43 -4
-95 5 -113 19 -167 131 -321 251 -343 267 -15 11 -37 30 -49 43 -21 21 -49 31
-38 14 8 -13 -62 -8 -76 6 -16 16 -28 15 -28 -3 0 -8 -4 -15 -10 -15 -15 0
-12 -28 6 -54 10 -16 12 -26 5 -31 -16 -9 -13 -23 9 -42 11 -10 20 -27 20 -38
0 -11 7 -31 16 -43 8 -12 17 -32 19 -44 3 -11 14 -31 25 -43 11 -12 20 -26 20
-32 0 -15 49 -103 77 -136 13 -16 23 -42 23 -58 0 -34 52 -140 92 -187 15 -18
28 -39 28 -47 0 -8 8 -23 18 -32 72 -70 108 -97 136 -102 17 -4 31 -12 31 -18
0 -21 -67 -63 -101 -63 -18 0 -44 -4 -57 -9 -14 -6 -64 -13 -111 -17 -86 -7
-86 -7 -87 17 l-1 24 -8 -25 c-6 -19 -8 -20 -9 -6 -1 12 -6 16 -16 12 -20 -7
-45 3 -40 17 8 22 -30 58 -70 67 -35 8 -42 7 -54 -10 -7 -11 -20 -20 -28 -20
-8 0 -12 -4 -9 -9 6 -9 -50 -21 -84 -19 -8 1 -26 -2 -40 -5 -14 -4 -19 -4 -12
-1 6 3 10 10 6 15 -8 13 -42 11 -47 -3 -4 -10 -6 -10 -6 0 -1 6 -8 12 -17 12
-9 0 -12 5 -8 13 4 6 -2 3 -14 -7 -18 -16 -22 -16 -22 -4 0 18 -27 31 -42 22
-6 -4 -8 1 -3 15 4 14 2 21 -7 21 -11 0 -11 2 0 9 11 7 11 11 -2 23 -25 26
-81 31 -118 11 -39 -21 -66 -24 -90 -12 -10 6 -18 6 -18 1 0 -12 -100 -5 -116
9 -7 6 -15 6 -18 1 -10 -17 -68 -2 -92 23 -13 15 -24 23 -24 19 0 -3 -6 -2
-13 5 -10 8 -17 7 -27 -2 -10 -9 -11 -9 -6 1 4 6 2 12 -3 12 -6 0 -11 -5 -11
-12 0 -6 -3 -8 -7 -5 -3 4 -18 0 -31 -9 -24 -15 -25 -15 -18 1 5 15 4 16 -9 5
-11 -9 -32 -11 -73 -6 -31 4 -65 8 -74 9 -9 1 -16 4 -16 7 2 27 -7 38 -42 49
-24 7 -38 16 -34 22 4 8 0 7 -14 0 -16 -8 -21 -7 -26 5 -8 21 -8 26 2 21 10
-7 7 61 -3 71 -5 4 -4 1 0 -7 6 -11 4 -13 -10 -7 -15 5 -16 4 -5 -9 7 -9 10
-19 6 -23 -4 -4 -12 1 -17 11 -6 9 -18 17 -28 17 -16 0 -19 10 -20 90 -2 90
-18 143 -57 190 -7 8 -20 39 -30 68 -16 52 -42 76 -70 65 -6 -2 -18 7 -28 21
-17 27 -21 40 -8 33 4 -3 7 23 6 56 0 34 7 82 16 107 20 54 17 63 -28 110 -30
31 -33 39 -29 78 2 24 13 52 23 63 18 20 18 22 -9 69 -29 52 -28 68 10 112 18
20 28 78 14 78 -16 0 -54 87 -45 102 14 22 14 47 2 55 -19 11 -46 11 -58 -1z
m8777 -1132 c-3 -3 -12 -4 -19 -1 -8 3 -5 6 6 6 11 1 17 -2 13 -5z m-1477
-238 c0 -3 -4 -8 -10 -11 -5 -3 -10 -1 -10 4 0 6 5 11 10 11 6 0 10 -2 10 -4z
m-4894 -107 c10 -16 -18 -39 -59 -49 -27 -6 -34 -5 -30 6 2 7 12 10 20 7 12
-5 14 -3 8 8 -4 8 -5 11 0 7 11 -10 47 11 40 23 -4 5 -2 9 4 9 5 0 13 -5 17
-11z m4019 -89 c3 -5 -1 -10 -9 -10 -9 0 -16 5 -16 10 0 6 4 10 9 10 6 0 13
-4 16 -10z m40 -29 c7 -12 -12 -24 -25 -16 -11 7 -4 25 10 25 5 0 11 -4 15 -9z
m-4725 -66 c-7 -8 -27 -15 -44 -14 l-31 1 33 8 c18 4 36 10 39 14 13 12 15 5
3 -9z m4714 -47 c13 -18 13 -24 0 -49 -18 -36 -54 -38 -84 -7 -23 25 -19 54
12 80 23 20 47 12 72 -24z m-4799 12 c-3 -5 -12 -10 -18 -10 -7 0 -6 4 3 10
19 12 23 12 15 0z m4159 -96 c3 -8 2 -12 -4 -9 -6 3 -10 10 -10 16 0 14 7 11
14 -7z m-3217 -68 c-4 -9 1 -17 11 -19 12 -3 11 -5 -5 -6 -13 0 -23 -5 -23
-11 0 -5 -4 -10 -10 -10 -5 0 -10 14 -10 30 0 24 4 30 21 30 14 0 19 -5 16
-14z m510 -32 c-3 -3 -12 -4 -19 -1 -8 3 -5 6 6 6 11 1 17 -2 13 -5z m-533
-39 c3 -8 1 -15 -4 -15 -6 0 -10 7 -10 15 0 8 2 15 4 15 2 0 6 -7 10 -15z
m142 -26 c0 -34 -3 -40 -18 -36 -10 3 -16 1 -12 -4 3 -5 1 -9 -5 -9 -5 0 -12
6 -14 13 -3 6 -6 1 -7 -13 l-2 -25 -8 25 c-8 24 -8 24 -9 3 -1 -23 -11 -29
-24 -16 -4 3 -1 16 8 29 13 20 13 21 -5 17 -27 -7 -25 6 3 16 14 5 25 4 30 -3
4 -7 9 -3 13 11 5 19 15 26 45 32 3 0 5 -17 5 -40z m29 31 c3 -5 1 -10 -4 -10
-6 0 -11 5 -11 10 0 6 2 10 4 10 3 0 8 -4 11 -10z m455 -20 c0 -4 -6 -10 -12
-13 -10 -4 -10 -7 0 -18 7 -8 12 -9 12 -2 0 12 47 23 67 16 18 -7 16 -33 -2
-33 -8 0 -15 -4 -15 -8 0 -7 -135 -9 -162 -4 -4 1 5 15 20 30 15 15 33 26 40
24 6 -2 12 0 12 5 0 5 9 9 20 10 11 1 20 -2 20 -7z m130 -40 c-6 -11 -15 -18
-21 -15 -15 10 -11 23 9 28 9 3 18 5 20 6 1 0 -2 -8 -8 -19z m706 1 c-3 -5 5
-11 19 -13 13 -3 26 0 29 6 2 6 5 0 6 -14 1 -23 2 -24 14 -8 12 16 13 14 12
-17 -1 -25 -11 -45 -36 -71 -30 -33 -109 -79 -118 -69 -9 8 12 75 23 75 22 0
38 30 37 67 -1 34 4 53 14 53 3 0 3 -4 0 -9z m-1841 -30 c-4 -13 -11 -18 -18
-14 -7 4 -6 -1 2 -10 8 -10 11 -20 7 -24 -3 -4 -13 2 -22 13 -14 18 -15 18 -4
-3 6 -13 15 -23 21 -23 6 0 7 -5 4 -10 -4 -6 -12 -7 -18 -3 -7 4 -6 0 2 -10 7
-9 20 -17 27 -17 17 0 18 -16 2 -24 -7 -3 -1 -3 15 0 18 4 27 2 27 -7 0 -8 6
-5 15 7 13 18 16 18 43 3 27 -15 30 -15 40 0 10 14 12 14 21 1 10 -13 11 -13
11 0 0 10 3 11 8 4 10 -16 39 -13 38 4 0 8 5 17 13 20 9 3 11 0 6 -8 -5 -8 -4
-11 3 -6 6 4 8 14 5 23 -5 12 -2 15 10 10 11 -4 14 -2 10 9 -4 10 5 8 30 -8
34 -23 34 -23 15 -42 -15 -14 -22 -16 -28 -6 -6 9 -12 10 -26 1 -12 -6 -14
-11 -5 -11 11 0 11 -3 1 -15 -7 -8 -18 -15 -24 -15 -6 0 -17 -9 -24 -20 -7
-11 -16 -20 -21 -20 -6 0 -22 -5 -38 -12 -15 -6 -31 -12 -35 -12 -3 -1 -10 -4
-13 -8 -4 -4 -20 -1 -35 7 -15 8 -30 11 -34 8 -3 -4 -6 -1 -6 5 0 7 -7 9 -17
5 -15 -5 -16 -3 -6 7 15 16 0 40 -26 40 -37 1 -84 63 -55 74 8 3 14 11 14 18
0 9 -3 8 -10 -2 -8 -13 -10 -12 -10 3 0 14 5 17 20 12 11 -4 20 -2 20 4 0 6
-9 11 -20 11 -11 0 -20 5 -20 10 0 6 -4 10 -9 10 -5 0 -7 -8 -4 -18 2 -10 -3
-24 -11 -31 -10 -8 -16 -9 -16 -3 0 6 4 13 9 16 5 3 7 15 4 26 -5 19 -3 21 40
24 6 1 15 5 18 9 3 4 16 9 27 10 12 1 22 6 22 11 0 5 3 7 6 3 3 -3 3 -15 -1
-26z m40 19 c3 -5 1 -10 -4 -10 -6 0 -11 5 -11 10 0 6 2 10 4 10 3 0 8 -4 11
-10z m369 -15 c-4 -8 1 -18 10 -21 9 -3 16 -11 16 -17 0 -7 -4 -7 -12 1 -17
17 -28 15 -28 -4 0 -8 -5 -12 -11 -8 -6 3 -15 0 -20 -7 -7 -11 -9 -9 -9 8 0
12 10 33 22 46 23 26 41 27 32 2z m762 -3 c-9 -9 -37 8 -31 18 5 8 11 7 21 -1
8 -6 12 -14 10 -17z m-926 -31 c-5 -10 -6 -21 -3 -25 9 -8 -28 -47 -38 -40 -5
3 -6 11 -2 17 4 7 -1 6 -11 -2 -16 -13 -17 -12 -11 15 5 22 4 25 -4 14 -9 -13
-11 -13 -11 2 0 12 11 19 35 24 19 3 35 10 35 16 0 5 5 6 10 3 7 -4 7 -12 0
-24z m45 9 c3 -5 1 -10 -4 -10 -6 0 -11 5 -11 10 0 6 2 10 4 10 3 0 8 -4 11
-10z m-435 -15 c-7 -8 -16 -12 -21 -9 -13 8 -1 24 18 24 13 0 13 -3 3 -15z
m-456 -7 c-6 -10 -4 -10 7 -2 15 12 122 4 136 -10 11 -11 -26 -36 -54 -36 -13
0 -23 -5 -23 -10 0 -6 -6 -10 -12 -9 -7 2 -32 -3 -56 -10 -31 -9 -47 -9 -60
-1 -16 11 -15 11 2 6 14 -5 16 -3 8 6 -14 17 -10 65 6 65 6 0 12 -4 12 -9 0
-5 5 -6 10 -3 6 4 8 11 5 16 -4 5 1 9 10 9 10 0 13 -5 9 -12z m646 -7 c0 -5
-9 -11 -20 -14 -11 -3 -20 -1 -20 3 0 5 8 11 18 13 9 3 18 5 20 6 1 0 2 -3 2
-8z m1067 -47 c9 4 21 2 28 -4 7 -5 25 -11 41 -12 16 -1 35 -6 42 -11 7 -6 12
-6 12 0 0 9 47 10 56 1 4 -5 -22 -53 -48 -88 l-18 -24 -29 28 c-33 32 -64 38
-101 20 -20 -9 -28 -9 -38 2 -7 8 -10 19 -6 26 5 7 3 8 -6 3 -9 -5 -10 -2 -6
12 5 16 2 19 -16 19 -14 -1 -23 5 -23 14 -1 21 25 28 63 18 19 -5 41 -7 49 -4z
m-176 -16 c20 -23 25 -53 10 -63 -11 -6 -7 -35 9 -65 10 -20 9 -21 -27 -21
-91 -1 -102 -2 -96 -13 3 -6 1 -6 -7 1 -9 9 -19 9 -33 2 -14 -8 -18 -8 -12 1
4 7 -6 5 -24 -4 -17 -9 -42 -34 -56 -56 -14 -22 -29 -40 -34 -40 -5 0 -16 -3
-25 -6 -22 -8 -49 49 -41 87 4 16 10 27 14 24 5 -2 16 4 25 14 11 12 29 18 47
17 19 -1 29 3 29 12 0 9 7 11 23 7 17 -5 19 -4 7 4 -10 7 -11 11 -2 11 6 0 12
5 12 11 0 5 -4 7 -10 4 -5 -3 -10 1 -10 9 0 9 -4 16 -10 16 -5 0 -10 5 -10 10
0 6 9 10 20 10 11 0 20 5 20 11 0 5 -6 7 -12 3 -9 -5 -10 -4 -3 4 12 13 106
19 123 8 7 -4 12 -1 12 8 0 23 39 20 61 -6z m-1607 -30 c-3 -4 -10 -8 -16 -8
-6 0 -8 3 -5 7 4 3 1 13 -6 21 -11 13 -9 14 10 2 12 -8 19 -18 17 -22z m26
-97 c17 -32 12 -89 -10 -111 -25 -25 -90 -58 -128 -65 -39 -6 -62 15 -62 59 0
37 41 82 105 114 52 26 82 27 95 3z m1720 -15 c0 -2 -11 -6 -25 -8 -14 -3 -25
-1 -25 3 0 5 11 9 25 9 14 0 25 -2 25 -4z m1022 -183 c23 -20 24 -78 2 -87 -9
-3 -26 -6 -39 -6 -41 0 -60 63 -29 94 20 21 43 20 66 -1z m646 -105 c-2 -7 14
-12 45 -13 27 -1 47 3 47 9 0 6 4 5 9 -2 4 -8 11 -13 15 -13 25 4 30 1 18 -11
-7 -7 -12 -16 -12 -22 0 -5 3 -6 7 -3 4 4 12 -6 19 -23 11 -25 18 -30 38 -26
22 4 24 2 19 -27 -3 -18 -6 -39 -6 -48 -1 -9 -8 -16 -17 -14 -8 1 -31 -4 -51
-10 -42 -15 -45 -13 -82 43 -15 24 -35 46 -43 49 -31 12 -51 93 -23 93 5 0 8
3 8 8 -2 12 1 22 6 22 3 0 4 -5 3 -12z m42 -2 c-7 -7 -13 -7 -20 0 -6 6 -3 10
10 10 13 0 16 -4 10 -10z m-701 -30 c7 -12 11 -36 9 -52 -2 -23 -8 -30 -31
-32 -52 -6 -86 50 -54 90 25 33 57 30 76 -6z m194 -136 c17 -16 28 -33 24 -37
-4 -3 -7 -1 -7 5 0 7 -4 12 -10 12 -6 0 -6 -9 0 -25 5 -14 6 -25 2 -25 -4 0
-8 -9 -9 -20 -2 -29 -41 -88 -62 -95 -44 -14 -65 19 -77 119 -6 57 -6 61 22
83 37 30 75 24 117 -17z m1150 -11 c14 -8 16 -21 13 -87 -2 -42 -5 -78 -5 -80
-2 -5 -60 2 -58 8 1 3 -4 15 -11 26 -6 12 -8 25 -4 29 4 5 2 5 -4 2 -7 -4 -19
10 -29 34 -13 28 -21 36 -27 27 -5 -9 -8 -6 -8 10 0 21 11 26 49 25 9 -1 10 2
3 9 -7 7 -20 5 -41 -5 -34 -17 -38 -16 -16 6 16 16 105 13 138 -4z m-238 1 c4
-6 11 -8 16 -5 13 9 11 -9 -3 -24 -11 -11 -9 -11 12 -1 25 13 25 13 5 -7 -28
-27 -55 -18 -55 18 0 29 13 38 25 19z m-2965 -65 c0 -7 -9 -20 -20 -30 -16
-15 -25 -16 -44 -7 -25 11 -41 58 -23 69 6 4 7 1 3 -8 -4 -8 -1 -6 7 3 8 10
17 15 20 11 4 -3 7 0 7 7 0 9 9 5 25 -10 14 -13 25 -29 25 -35z m1922 -112
c18 -16 24 -68 10 -89 -14 -22 -49 -25 -72 -6 -27 22 -30 65 -5 92 22 24 43
25 67 3z m1777 -37 c10 -12 8 -13 -8 -9 -12 3 -21 9 -21 14 0 14 16 11 29 -5z
m889 -38 c6 -6 12 -18 12 -28 0 -26 -65 -32 -94 -9 l-21 17 24 21 c24 21 51
21 79 -1z m-2679 -82 c12 -26 12 -33 0 -55 -16 -29 -61 -40 -85 -20 -17 14
-19 80 -2 97 23 23 71 10 87 -22z m-41 -158 c17 -17 15 -74 -4 -92 -8 -9 -24
-16 -34 -16 -22 0 -50 36 -50 64 0 43 59 73 88 44z m-112 -213 c21 -33 7 -77
-29 -89 -35 -13 -60 10 -60 53 0 60 58 84 89 36z m333 -341 c17 -38 5 -66 -26
-62 -38 4 -50 30 -30 62 22 33 41 33 56 0z"/>
<path d="M4030 2160 c0 -5 5 -10 11 -10 5 0 7 5 4 10 -3 6 -8 10 -11 10 -2 0
-4 -4 -4 -10z"/>
<path d="M3385 2120 c3 -5 8 -10 11 -10 2 0 4 5 4 10 0 6 -5 10 -11 10 -5 0
-7 -4 -4 -10z"/>
<path d="M6243 4013 c9 -2 25 -2 35 0 9 3 1 5 -18 5 -19 0 -27 -2 -17 -5z"/>
<path d="M10110 4000 c0 -5 5 -10 11 -10 5 0 7 5 4 10 -3 6 -8 10 -11 10 -2 0
-4 -4 -4 -10z"/>
<path d="M10227 3969 c4 -13 8 -18 11 -10 2 7 -1 18 -6 23 -8 8 -9 4 -5 -13z"/>
<path d="M5957 3934 c-10 -10 19 -34 40 -33 16 0 16 1 -2 9 -11 5 -14 9 -7 9
7 1 10 6 7 11 -7 11 -28 13 -38 4z"/>
<path d="M6027 3883 c-13 -12 -7 -23 13 -23 11 0 20 7 20 15 0 15 -21 21 -33
8z"/>
<path d="M6903 3633 c-13 -34 13 -58 75 -71 53 -11 66 -19 104 -61 24 -27 62
-58 86 -70 50 -25 53 -42 12 -73 -29 -21 -91 -136 -106 -193 -5 -21 -3 -25 15
-25 11 0 26 10 33 23 19 34 102 146 109 146 3 1 16 -8 29 -19 25 -22 40 -20
125 12 103 39 110 47 75 88 -12 13 -18 30 -16 37 10 26 101 133 114 133 6 0
12 5 12 11 0 17 -62 2 -137 -32 -89 -40 -104 -38 -153 20 -48 56 -70 67 -160
77 -128 13 -211 12 -217 -3z"/>
<path d="M10226 3113 c-6 -14 -5 -15 5 -6 7 7 10 15 7 18 -3 3 -9 -2 -12 -12z"/>
<path d="M10113 3091 c-10 -16 -9 -20 8 -24 25 -7 35 11 17 29 -11 12 -15 11
-25 -5z"/>
<path d="M9971 3084 c0 -11 3 -14 6 -6 3 7 2 16 -1 19 -3 4 -6 -2 -5 -13z"/>
<path d="M255 3080 c-3 -5 -1 -10 4 -10 6 0 11 5 11 10 0 6 -2 10 -4 10 -3 0
-8 -4 -11 -10z"/>
<path d="M9935 3069 c-4 -6 -5 -12 -2 -15 2 -3 7 2 10 11 7 17 1 20 -8 4z"/>
<path d="M2644 2653 c3 -8 6 -18 6 -21 0 -4 5 0 11 8 9 13 10 13 6 0 -2 -8
-13 -16 -25 -18 -28 -4 -28 -26 -2 -45 18 -13 19 -18 9 -41 -7 -15 -20 -26
-32 -26 -11 0 -18 -3 -14 -6 11 -12 55 6 60 24 4 16 5 16 6 0 3 -53 38 10 40
72 1 29 -1 32 -10 18 -5 -10 -18 -18 -27 -18 -16 1 -16 2 1 14 17 13 24 45 10
47 -5 0 -16 2 -26 4 -13 2 -17 -1 -13 -12z"/>
<path d="M3440 2312 c0 -10 7 -19 15 -19 17 0 17 0 9 21 -8 22 -24 20 -24 -2z"/>
<path d="M3578 2303 c6 -2 18 -2 25 0 6 3 1 5 -13 5 -14 0 -19 -2 -12 -5z"/>
<path d="M3787 2299 c7 -7 15 -10 18 -7 3 3 -2 9 -12 12 -14 6 -15 5 -6 -5z"/>
<path d="M3530 2280 c0 -5 7 -10 15 -10 8 0 15 5 15 10 0 6 -7 10 -15 10 -8 0
-15 -4 -15 -10z"/>
<path d="M5130 2186 c0 -2 8 -10 18 -17 15 -13 16 -12 3 4 -13 16 -21 21 -21
13z"/>
</g>
</svg>
